<svg xmlns="http://www.w3.org/2000/svg" xmlns:xlink="http://www.w3.org/1999/xlink" width="940" zoomAndPan="magnify" viewBox="0 0 705.12 472.50001" height="788" preserveAspectRatio="xMidYMid meet" version="1.0"><defs><clipPath id="97afd5bf5a"><path d="M 115.957031 273 L 586 273 L 586 471.957031 L 115.957031 471.957031 Z M 115.957031 273 " clip-rule="nonzero"/></clipPath><clipPath id="8145193412"><path d="M 115.957031 432 L 586 432 L 586 455 L 115.957031 455 Z M 115.957031 432 " clip-rule="nonzero"/></clipPath><clipPath id="8ef8ce46cd"><path d="M 115.957031 381 L 586 381 L 586 404 L 115.957031 404 Z M 115.957031 381 " clip-rule="nonzero"/></clipPath><clipPath id="45490577b9"><path d="M 115.957031 298 L 586 298 L 586 310 L 115.957031 310 Z M 115.957031 298 " clip-rule="nonzero"/></clipPath></defs><g clip-path="url(#97afd5bf5a)"><path fill="#ffffff" d="M 123.167969 495.386719 L 575.269531 495.386719 L 575.269531 283.691406 L 123.167969 283.691406 Z M 580.429688 505.707031 L 118.007812 505.707031 C 115.15625 505.707031 112.847656 503.398438 112.847656 500.546875 L 112.847656 278.527344 C 112.847656 275.679688 115.15625 273.371094 118.007812 273.371094 L 580.429688 273.367188 C 583.277344 273.367188 585.589844 275.679688 585.589844 278.53125 L 585.589844 500.546875 C 585.589844 503.394531 583.277344 505.707031 580.429688 505.707031 Z M 580.429688 505.707031 " fill-opacity="1" fill-rule="evenodd"/></g><path fill="#ffffff" d="M 185.886719 402.535156 C 183.035156 402.535156 180.726562 400.226562 180.726562 397.375 L 180.726562 259.433594 C 180.726562 240.609375 196.042969 225.289062 214.875 225.289062 C 233.707031 225.289062 249.027344 240.609375 249.027344 259.433594 L 249.027344 278.527344 C 249.027344 281.378906 246.714844 283.691406 243.867188 283.691406 C 241.015625 283.691406 238.703125 281.378906 238.703125 278.53125 L 238.703125 259.433594 C 238.703125 246.296875 228.015625 235.609375 214.875 235.609375 C 201.734375 235.609375 191.046875 246.296875 191.046875 259.433594 L 191.046875 397.375 C 191.046875 400.226562 188.734375 402.535156 185.886719 402.535156 Z M 185.886719 402.535156 " fill-opacity="1" fill-rule="evenodd"/><path fill="#ffffff" d="M 279.21875 402.140625 C 276.367188 402.140625 274.058594 399.828125 274.058594 396.980469 L 274.058594 259.433594 C 274.058594 240.609375 289.378906 225.289062 308.207031 225.289062 C 327.039062 225.289062 342.359375 240.609375 342.359375 259.433594 L 342.359375 278.527344 C 342.359375 281.378906 340.046875 283.691406 337.199219 283.691406 C 334.347656 283.691406 332.039062 281.378906 332.039062 278.53125 L 332.039062 259.433594 C 332.039062 246.296875 321.347656 235.609375 308.207031 235.609375 C 295.070312 235.609375 284.378906 246.296875 284.378906 259.433594 L 284.378906 396.976562 C 284.378906 399.828125 282.070312 402.140625 279.21875 402.140625 Z M 279.21875 402.140625 " fill-opacity="1" fill-rule="evenodd"/><g clip-path="url(#8145193412)"><path fill="#ffffff" d="M 522.625 454.585938 C 512.234375 454.585938 502.070312 451.542969 492.242188 448.585938 C 482.707031 445.726562 473.699219 443.027344 464.824219 443.027344 C 455.949219 443.027344 446.941406 445.726562 437.40625 448.585938 C 427.574219 451.542969 417.414062 454.585938 407.019531 454.585938 C 396.628906 454.585938 386.464844 451.542969 376.636719 448.585938 C 367.101562 445.726562 358.09375 443.027344 349.21875 443.027344 C 340.339844 443.027344 331.335938 445.726562 321.800781 448.585938 C 311.972656 451.542969 301.808594 454.585938 291.417969 454.585938 C 281.023438 454.585938 270.859375 451.542969 261.03125 448.585938 C 251.496094 445.726562 242.488281 443.027344 233.613281 443.027344 C 224.738281 443.027344 215.730469 445.726562 206.195312 448.585938 C 196.367188 451.542969 186.203125 454.585938 175.8125 454.585938 C 165.417969 454.585938 155.253906 451.542969 145.425781 448.585938 C 135.890625 445.726562 126.882812 443.027344 118.007812 443.027344 C 115.15625 443.027344 112.847656 440.714844 112.847656 437.867188 C 112.847656 435.015625 115.15625 432.707031 118.007812 432.707031 C 128.398438 432.707031 138.5625 435.757812 148.390625 438.703125 C 157.925781 441.566406 166.933594 444.261719 175.8125 444.261719 C 184.6875 444.261719 193.695312 441.566406 203.230469 438.703125 C 213.058594 435.757812 223.222656 432.707031 233.613281 432.707031 C 244.003906 432.707031 254.167969 435.757812 263.996094 438.703125 C 273.535156 441.566406 282.539062 444.261719 291.417969 444.261719 C 300.292969 444.261719 309.300781 441.566406 318.835938 438.703125 C 328.664062 435.757812 338.828125 432.707031 349.21875 432.707031 C 359.609375 432.707031 369.773438 435.757812 379.601562 438.703125 C 389.136719 441.566406 398.144531 444.261719 407.019531 444.261719 C 415.898438 444.261719 424.902344 441.566406 434.441406 438.703125 C 444.269531 435.757812 454.433594 432.707031 464.824219 432.707031 C 475.214844 432.707031 485.378906 435.757812 495.207031 438.703125 C 504.742188 441.566406 513.75 444.261719 522.625 444.261719 C 531.503906 444.261719 540.507812 441.566406 550.042969 438.703125 C 559.875 435.757812 570.039062 432.707031 580.429688 432.707031 C 583.28125 432.707031 585.589844 435.015625 585.589844 437.867188 C 585.589844 440.714844 583.28125 443.027344 580.429688 443.027344 C 571.554688 443.027344 562.546875 445.726562 553.011719 448.585938 C 543.179688 451.542969 533.019531 454.585938 522.625 454.585938 Z M 522.625 454.585938 " fill-opacity="1" fill-rule="evenodd"/></g><g clip-path="url(#8ef8ce46cd)"><path fill="#ffffff" d="M 522.625 403.460938 C 512.234375 403.460938 502.070312 400.417969 492.242188 397.460938 C 482.707031 394.601562 473.699219 391.902344 464.824219 391.902344 C 455.949219 391.902344 446.941406 394.601562 437.40625 397.460938 C 427.574219 400.417969 417.414062 403.460938 407.019531 403.460938 C 396.628906 403.460938 386.464844 400.417969 376.636719 397.460938 C 367.101562 394.601562 358.09375 391.902344 349.21875 391.902344 C 340.339844 391.902344 331.335938 394.601562 321.800781 397.460938 C 311.972656 400.417969 301.808594 403.460938 291.417969 403.460938 C 281.023438 403.460938 270.859375 400.417969 261.03125 397.460938 C 251.496094 394.601562 242.488281 391.902344 233.613281 391.902344 C 224.738281 391.902344 215.730469 394.601562 206.195312 397.460938 C 196.367188 400.417969 186.203125 403.460938 175.8125 403.460938 C 165.417969 403.460938 155.253906 400.417969 145.425781 397.460938 C 135.890625 394.601562 126.882812 391.902344 118.007812 391.902344 C 115.15625 391.902344 112.847656 389.59375 112.847656 386.742188 C 112.847656 383.894531 115.15625 381.582031 118.007812 381.582031 C 128.398438 381.582031 138.5625 384.636719 148.390625 387.582031 C 157.925781 390.441406 166.933594 393.140625 175.8125 393.140625 C 184.6875 393.140625 193.695312 390.441406 203.230469 387.582031 C 213.058594 384.636719 223.222656 381.582031 233.613281 381.582031 C 244.003906 381.582031 254.167969 384.636719 263.996094 387.582031 C 273.535156 390.441406 282.539062 393.140625 291.417969 393.140625 C 300.292969 393.140625 309.300781 390.441406 318.835938 387.582031 C 328.664062 384.636719 338.828125 381.582031 349.21875 381.582031 C 359.609375 381.582031 369.773438 384.636719 379.601562 387.582031 C 389.136719 390.441406 398.144531 393.140625 407.019531 393.140625 C 415.898438 393.140625 424.902344 390.441406 434.441406 387.582031 C 444.269531 384.636719 454.433594 381.582031 464.824219 381.582031 C 475.214844 381.582031 485.378906 384.636719 495.207031 387.582031 C 504.742188 390.441406 513.75 393.140625 522.625 393.140625 C 531.503906 393.140625 540.507812 390.441406 550.042969 387.582031 C 559.875 384.636719 570.039062 381.582031 580.429688 381.582031 C 583.28125 381.582031 585.589844 383.894531 585.589844 386.742188 C 585.589844 389.59375 583.28125 391.902344 580.429688 391.902344 C 571.554688 391.902344 562.546875 394.601562 553.011719 397.460938 C 543.179688 400.417969 533.019531 403.460938 522.625 403.460938 Z M 522.625 403.460938 " fill-opacity="1" fill-rule="evenodd"/></g><g clip-path="url(#45490577b9)"><path fill="#ffffff" d="M 580.429688 309.136719 L 118.007812 309.136719 C 115.15625 309.136719 112.847656 306.839844 112.847656 303.980469 C 112.847656 301.128906 115.15625 298.816406 118.007812 298.816406 L 580.429688 298.816406 C 583.28125 298.816406 585.589844 301.128906 585.589844 303.980469 C 585.589844 306.839844 583.28125 309.140625 580.429688 309.136719 Z M 580.429688 309.136719 " fill-opacity="1" fill-rule="evenodd"/></g><path fill="#ffffff" d="M 279.21875 337.425781 L 185.886719 337.425781 C 183.035156 337.425781 180.726562 335.113281 180.726562 332.265625 C 180.726562 329.417969 183.035156 327.105469 185.886719 327.105469 L 279.21875 327.105469 C 282.070312 327.105469 284.378906 329.417969 284.378906 332.265625 C 284.378906 335.113281 282.070312 337.425781 279.21875 337.425781 Z M 279.21875 337.425781 " fill-opacity="1" fill-rule="evenodd"/><path fill="#ffffff" d="M 279.21875 365.710938 L 185.886719 365.710938 C 183.035156 365.710938 180.726562 363.402344 180.726562 360.554688 C 180.726562 357.691406 183.035156 355.390625 185.886719 355.390625 L 279.21875 355.390625 C 282.070312 355.390625 284.378906 357.691406 284.378906 360.554688 C 284.378906 363.402344 282.070312 365.714844 279.21875 365.710938 Z M 279.21875 365.710938 " fill-opacity="1" fill-rule="evenodd"/><path fill="#ffffff" d="M 392.582031 230.609375 C 389.191406 230.609375 386.429688 233.375 386.429688 236.761719 L 386.429688 237.328125 C 386.429688 241.480469 389.800781 244.84375 393.945312 244.84375 L 512.550781 244.84375 L 550.210938 207.195312 C 551.367188 206.03125 552.003906 204.484375 552.003906 202.839844 C 552.003906 201.195312 551.367188 199.644531 550.210938 198.484375 C 548.601562 196.871094 546.59375 195.949219 544.558594 195.882812 C 542.546875 195.796875 540.691406 196.570312 539.179688 198.085938 L 508.164062 229.09375 C 507.199219 230.0625 505.882812 230.609375 504.515625 230.609375 Z M 514.6875 255.167969 L 393.945312 255.167969 C 384.109375 255.167969 376.109375 247.167969 376.109375 237.332031 L 376.109375 236.757812 C 376.109375 227.675781 383.5 220.289062 392.582031 220.289062 L 502.378906 220.289062 L 531.882812 190.785156 C 535.421875 187.25 540.046875 185.390625 544.925781 185.5625 C 549.582031 185.734375 554.050781 187.722656 557.511719 191.195312 C 560.613281 194.292969 562.324219 198.429688 562.324219 202.839844 C 562.324219 207.246094 560.617188 211.375 557.507812 214.484375 L 518.339844 253.660156 C 517.371094 254.628906 516.058594 255.167969 514.691406 255.167969 Z M 514.6875 255.167969 " fill-opacity="1" fill-rule="evenodd"/><path fill="#ffffff" d="M 402.164062 283.691406 C 399.316406 283.691406 397.003906 281.378906 397.003906 278.53125 L 397.003906 250.003906 C 397.003906 247.15625 399.316406 244.847656 402.164062 244.847656 C 405.015625 244.84375 407.328125 247.15625 407.328125 250.007812 L 407.328125 278.527344 C 407.328125 281.378906 405.015625 283.691406 402.164062 283.691406 Z M 402.164062 283.691406 " fill-opacity="1" fill-rule="evenodd"/><path fill="#ffffff" d="M 506.46875 283.691406 C 503.617188 283.691406 501.308594 281.378906 501.308594 278.53125 L 501.308594 250.003906 C 501.308594 247.15625 503.617188 244.847656 506.46875 244.847656 C 509.320312 244.84375 511.628906 247.15625 511.628906 250.007812 L 511.628906 278.527344 C 511.628906 281.378906 509.320312 283.691406 506.46875 283.691406 Z M 506.46875 283.691406 " fill-opacity="1" fill-rule="evenodd"/><path fill="#ffffff" d="M 503.59375 157.875 C 511.683594 158.695312 519.617188 160.359375 527.308594 162.84375 L 490.226562 91.507812 L 422.445312 134.742188 C 430.351562 136.4375 438.050781 138.964844 445.46875 142.308594 C 466.402344 141.351562 485.941406 146.589844 503.59375 157.875 Z M 538.21875 177.800781 C 537.488281 177.800781 536.746094 177.648438 536.050781 177.328125 C 525.082031 172.242188 513.417969 169.125 501.378906 168.039062 C 500.535156 167.960938 499.722656 167.671875 499.011719 167.210938 C 482.605469 156.4375 464.363281 151.554688 444.769531 152.671875 C 443.921875 152.726562 443.074219 152.566406 442.304688 152.199219 C 431.335938 147.125 419.671875 143.996094 407.632812 142.910156 C 405.433594 142.71875 403.605469 141.136719 403.082031 138.996094 C 402.558594 136.847656 403.460938 134.609375 405.320312 133.429688 L 489.429688 79.769531 C 490.652344 78.992188 492.144531 78.769531 493.539062 79.132812 C 494.941406 79.507812 496.117188 80.457031 496.785156 81.746094 L 542.800781 170.261719 C 543.816406 172.21875 543.476562 174.605469 541.953125 176.210938 C 540.957031 177.25 539.597656 177.800781 538.21875 177.800781 Z M 538.21875 177.800781 " fill-opacity="1" fill-rule="evenodd"/><path fill="#ffffff" d="M 501.835938 168.058594 C 499.265625 168.058594 497.039062 166.132812 496.71875 163.523438 L 488.636719 97.441406 L 448.597656 150.628906 C 446.882812 152.898438 443.648438 153.363281 441.371094 151.640625 C 439.09375 149.933594 438.636719 146.695312 440.351562 144.417969 L 488.082031 81.015625 C 489.347656 79.335938 491.507812 78.597656 493.539062 79.132812 C 495.574219 79.683594 497.074219 81.402344 497.328125 83.5 L 506.964844 162.261719 C 507.3125 165.101562 505.296875 167.671875 502.46875 168.015625 C 502.257812 168.046875 502.046875 168.058594 501.835938 168.058594 Z M 501.835938 168.058594 " fill-opacity="1" fill-rule="evenodd"/><path fill="#ffffff" d="M 454.34375 230.609375 C 453.898438 230.609375 453.449219 230.558594 453.003906 230.4375 C 450.25 229.695312 448.617188 226.867188 449.351562 224.117188 L 469.441406 149.136719 C 470.183594 146.382812 473.011719 144.75 475.765625 145.480469 C 478.515625 146.222656 480.152344 149.050781 479.414062 151.800781 L 459.324219 226.78125 C 458.707031 229.09375 456.621094 230.609375 454.34375 230.609375 Z M 454.34375 230.609375 " fill-opacity="1" fill-rule="evenodd"/></svg>