<svg xmlns="http://www.w3.org/2000/svg" xmlns:xlink="http://www.w3.org/1999/xlink" width="940" zoomAndPan="magnify" viewBox="0 0 705.12 472.50001" height="788" preserveAspectRatio="xMidYMid meet" version="1.0"><defs><clipPath id="9e643fb8c5"><path d="M 482 59.070312 L 550 59.070312 L 550 124 L 482 124 Z M 482 59.070312 " clip-rule="nonzero"/></clipPath><clipPath id="00affb49ac"><path d="M 111 122 L 369 122 L 369 471.957031 L 111 471.957031 Z M 111 122 " clip-rule="nonzero"/></clipPath><clipPath id="6717723f67"><path d="M 380 111 L 593.902344 111 L 593.902344 471.957031 L 380 471.957031 Z M 380 111 " clip-rule="nonzero"/></clipPath></defs><path fill="#ffffff" d="M 544.171875 377.523438 C 543.59375 377.523438 543.015625 377.496094 542.441406 377.4375 C 541.867188 377.382812 541.296875 377.296875 540.730469 377.183594 C 540.160156 377.070312 539.601562 376.933594 539.050781 376.765625 C 538.496094 376.597656 537.953125 376.402344 537.417969 376.179688 C 536.882812 375.960938 536.363281 375.710938 535.851562 375.441406 C 535.34375 375.167969 534.847656 374.871094 534.367188 374.550781 C 533.886719 374.230469 533.421875 373.886719 532.976562 373.519531 C 532.53125 373.152344 532.101562 372.765625 531.691406 372.355469 C 531.285156 371.945312 530.898438 371.519531 530.53125 371.074219 C 530.164062 370.625 529.820312 370.160156 529.5 369.679688 C 529.175781 369.199219 528.882812 368.707031 528.609375 368.195312 C 528.335938 367.6875 528.089844 367.164062 527.867188 366.628906 C 527.648438 366.097656 527.453125 365.554688 527.285156 365 C 527.117188 364.445312 526.976562 363.886719 526.863281 363.320312 C 526.75 362.753906 526.667969 362.183594 526.609375 361.605469 C 526.554688 361.03125 526.523438 360.457031 526.523438 359.878906 C 526.523438 359.300781 526.554688 358.722656 526.609375 358.148438 C 526.667969 357.574219 526.75 357 526.863281 356.433594 C 526.976562 355.867188 527.117188 355.308594 527.285156 354.753906 C 527.453125 354.203125 527.648438 353.660156 527.867188 353.125 C 528.089844 352.589844 528.335938 352.070312 528.609375 351.558594 C 528.882812 351.050781 529.175781 350.554688 529.5 350.074219 C 529.820312 349.59375 530.164062 349.128906 530.53125 348.683594 C 530.898438 348.234375 531.285156 347.808594 531.691406 347.398438 C 532.101562 346.992188 532.53125 346.601562 532.976562 346.238281 C 533.421875 345.871094 533.886719 345.527344 534.367188 345.203125 C 534.847656 344.882812 535.34375 344.585938 535.851562 344.3125 C 536.363281 344.042969 536.882812 343.796875 537.417969 343.574219 C 537.953125 343.351562 538.496094 343.160156 539.050781 342.992188 C 539.601562 342.824219 540.160156 342.683594 540.730469 342.570312 C 541.296875 342.457031 541.867188 342.371094 542.441406 342.316406 C 543.015625 342.257812 543.59375 342.230469 544.171875 342.230469 C 544.75 342.230469 545.324219 342.257812 545.902344 342.316406 C 546.476562 342.371094 547.046875 342.457031 547.613281 342.570312 C 548.179688 342.683594 548.742188 342.824219 549.292969 342.992188 C 549.847656 343.160156 550.390625 343.351562 550.925781 343.574219 C 551.457031 343.796875 551.980469 344.042969 552.488281 344.316406 C 553 344.585938 553.496094 344.882812 553.976562 345.203125 C 554.457031 345.527344 554.917969 345.871094 555.367188 346.238281 C 555.8125 346.601562 556.242188 346.992188 556.648438 347.398438 C 557.058594 347.808594 557.445312 348.234375 557.8125 348.683594 C 558.179688 349.128906 558.523438 349.59375 558.84375 350.074219 C 559.164062 350.554688 559.460938 351.050781 559.734375 351.558594 C 560.007812 352.070312 560.253906 352.589844 560.476562 353.125 C 560.695312 353.660156 560.890625 354.203125 561.058594 354.753906 C 561.226562 355.308594 561.367188 355.867188 561.480469 356.433594 C 561.589844 357 561.675781 357.574219 561.734375 358.148438 C 561.789062 358.722656 561.816406 359.300781 561.816406 359.878906 C 561.816406 360.457031 561.789062 361.03125 561.734375 361.605469 C 561.675781 362.183594 561.589844 362.753906 561.480469 363.320312 C 561.367188 363.886719 561.226562 364.445312 561.058594 365 C 560.890625 365.554688 560.695312 366.097656 560.476562 366.628906 C 560.253906 367.164062 560.007812 367.6875 559.734375 368.195312 C 559.460938 368.707031 559.164062 369.199219 558.84375 369.679688 C 558.523438 370.160156 558.179688 370.625 557.8125 371.074219 C 557.445312 371.519531 557.058594 371.945312 556.648438 372.355469 C 556.242188 372.765625 555.8125 373.152344 555.367188 373.519531 C 554.917969 373.886719 554.457031 374.230469 553.976562 374.550781 C 553.496094 374.871094 553 375.167969 552.488281 375.441406 C 551.980469 375.710938 551.457031 375.960938 550.925781 376.179688 C 550.390625 376.402344 549.847656 376.597656 549.292969 376.765625 C 548.742188 376.933594 548.179688 377.070312 547.613281 377.183594 C 547.046875 377.296875 546.476562 377.382812 545.902344 377.4375 C 545.324219 377.496094 544.75 377.523438 544.171875 377.523438 Z M 544.171875 354.582031 C 543.785156 354.582031 543.402344 354.621094 543.023438 354.695312 C 542.644531 354.773438 542.277344 354.882812 541.921875 355.03125 C 541.5625 355.179688 541.222656 355.359375 540.902344 355.574219 C 540.582031 355.789062 540.285156 356.03125 540.011719 356.304688 C 539.738281 356.578125 539.496094 356.875 539.28125 357.199219 C 539.066406 357.519531 538.882812 357.859375 538.738281 358.214844 C 538.589844 358.570312 538.476562 358.9375 538.402344 359.316406 C 538.328125 359.695312 538.289062 360.078125 538.289062 360.464844 C 538.289062 360.851562 538.328125 361.234375 538.402344 361.613281 C 538.476562 361.992188 538.589844 362.359375 538.738281 362.714844 C 538.882812 363.074219 539.066406 363.414062 539.28125 363.734375 C 539.496094 364.054688 539.738281 364.351562 540.011719 364.625 C 540.285156 364.898438 540.582031 365.140625 540.902344 365.355469 C 541.222656 365.570312 541.5625 365.753906 541.921875 365.898438 C 542.277344 366.046875 542.644531 366.160156 543.023438 366.234375 C 543.402344 366.308594 543.785156 366.347656 544.171875 366.347656 C 544.558594 366.347656 544.941406 366.308594 545.320312 366.234375 C 545.699219 366.160156 546.066406 366.046875 546.421875 365.898438 C 546.777344 365.753906 547.117188 365.570312 547.4375 365.355469 C 547.761719 365.140625 548.058594 364.898438 548.332031 364.625 C 548.605469 364.351562 548.847656 364.054688 549.0625 363.734375 C 549.277344 363.414062 549.457031 363.074219 549.605469 362.714844 C 549.753906 362.359375 549.863281 361.992188 549.941406 361.613281 C 550.015625 361.234375 550.054688 360.851562 550.054688 360.464844 C 550.054688 360.078125 550.015625 359.695312 549.941406 359.316406 C 549.863281 358.9375 549.753906 358.570312 549.605469 358.214844 C 549.457031 357.859375 549.277344 357.519531 549.0625 357.199219 C 548.847656 356.875 548.605469 356.578125 548.332031 356.304688 C 548.058594 356.03125 547.761719 355.789062 547.4375 355.574219 C 547.117188 355.359375 546.777344 355.179688 546.421875 355.03125 C 546.066406 354.882812 545.699219 354.773438 545.320312 354.695312 C 544.941406 354.621094 544.558594 354.582031 544.171875 354.582031 Z M 544.171875 354.582031 " fill-opacity="1" fill-rule="nonzero"/><path fill="#ffffff" d="M 152.828125 425.171875 C 152.25 425.171875 151.671875 425.140625 151.097656 425.085938 C 150.523438 425.027344 149.953125 424.945312 149.382812 424.832031 C 148.816406 424.71875 148.257812 424.578125 147.703125 424.410156 C 147.152344 424.242188 146.609375 424.046875 146.074219 423.828125 C 145.539062 423.605469 145.019531 423.359375 144.507812 423.085938 C 144 422.8125 143.503906 422.515625 143.023438 422.195312 C 142.542969 421.875 142.078125 421.53125 141.632812 421.164062 C 141.1875 420.796875 140.757812 420.410156 140.347656 420 C 139.941406 419.59375 139.554688 419.164062 139.1875 418.71875 C 138.820312 418.273438 138.476562 417.808594 138.15625 417.328125 C 137.832031 416.847656 137.535156 416.351562 137.265625 415.84375 C 136.992188 415.332031 136.746094 414.808594 136.523438 414.277344 C 136.304688 413.742188 136.109375 413.199219 135.941406 412.644531 C 135.773438 412.09375 135.632812 411.53125 135.519531 410.964844 C 135.40625 410.398438 135.324219 409.828125 135.265625 409.253906 C 135.207031 408.679688 135.179688 408.101562 135.179688 407.523438 C 135.179688 406.945312 135.207031 406.367188 135.265625 405.792969 C 135.324219 405.21875 135.40625 404.648438 135.519531 404.082031 C 135.632812 403.515625 135.773438 402.953125 135.941406 402.402344 C 136.109375 401.847656 136.304688 401.304688 136.523438 400.769531 C 136.746094 400.234375 136.992188 399.714844 137.265625 399.203125 C 137.535156 398.695312 137.832031 398.199219 138.15625 397.71875 C 138.476562 397.238281 138.820312 396.773438 139.1875 396.328125 C 139.554688 395.882812 139.941406 395.453125 140.347656 395.046875 C 140.757812 394.636719 141.1875 394.25 141.632812 393.882812 C 142.078125 393.515625 142.542969 393.171875 143.023438 392.851562 C 143.503906 392.53125 144 392.234375 144.507812 391.960938 C 145.019531 391.6875 145.539062 391.441406 146.074219 391.21875 C 146.609375 391 147.152344 390.804688 147.703125 390.636719 C 148.257812 390.46875 148.816406 390.328125 149.382812 390.214844 C 149.953125 390.101562 150.523438 390.019531 151.097656 389.960938 C 151.671875 389.90625 152.25 389.875 152.828125 389.875 C 153.40625 389.875 153.980469 389.90625 154.558594 389.960938 C 155.132812 390.019531 155.703125 390.101562 156.269531 390.214844 C 156.835938 390.328125 157.398438 390.46875 157.949219 390.636719 C 158.503906 390.804688 159.046875 391 159.582031 391.21875 C 160.113281 391.441406 160.636719 391.6875 161.144531 391.960938 C 161.65625 392.234375 162.152344 392.53125 162.632812 392.851562 C 163.113281 393.171875 163.574219 393.515625 164.023438 393.882812 C 164.46875 394.25 164.898438 394.636719 165.304688 395.046875 C 165.714844 395.453125 166.101562 395.882812 166.46875 396.328125 C 166.835938 396.773438 167.179688 397.238281 167.5 397.71875 C 167.820312 398.199219 168.117188 398.695312 168.390625 399.203125 C 168.664062 399.714844 168.910156 400.234375 169.128906 400.769531 C 169.351562 401.304688 169.546875 401.847656 169.714844 402.402344 C 169.882812 402.953125 170.023438 403.515625 170.136719 404.082031 C 170.246094 404.648438 170.332031 405.21875 170.390625 405.792969 C 170.445312 406.367188 170.472656 406.945312 170.472656 407.523438 C 170.472656 408.101562 170.445312 408.679688 170.390625 409.253906 C 170.332031 409.828125 170.246094 410.398438 170.136719 410.964844 C 170.023438 411.53125 169.882812 412.09375 169.714844 412.644531 C 169.546875 413.199219 169.351562 413.742188 169.128906 414.277344 C 168.910156 414.808594 168.664062 415.332031 168.390625 415.84375 C 168.117188 416.351562 167.820312 416.847656 167.5 417.328125 C 167.179688 417.808594 166.835938 418.273438 166.46875 418.71875 C 166.101562 419.164062 165.714844 419.59375 165.304688 420 C 164.898438 420.410156 164.46875 420.796875 164.023438 421.164062 C 163.574219 421.53125 163.113281 421.875 162.632812 422.195312 C 162.152344 422.515625 161.65625 422.8125 161.144531 423.085938 C 160.636719 423.359375 160.113281 423.605469 159.582031 423.828125 C 159.046875 424.046875 158.503906 424.242188 157.949219 424.410156 C 157.398438 424.578125 156.835938 424.71875 156.269531 424.832031 C 155.703125 424.945312 155.132812 425.027344 154.558594 425.085938 C 153.980469 425.140625 153.40625 425.171875 152.828125 425.171875 Z M 152.828125 402.230469 C 152.441406 402.230469 152.058594 402.265625 151.679688 402.34375 C 151.300781 402.417969 150.933594 402.53125 150.578125 402.675781 C 150.21875 402.824219 149.878906 403.007812 149.558594 403.21875 C 149.238281 403.433594 148.941406 403.679688 148.667969 403.953125 C 148.394531 404.226562 148.152344 404.523438 147.9375 404.84375 C 147.722656 405.164062 147.539062 405.503906 147.394531 405.859375 C 147.246094 406.21875 147.132812 406.585938 147.058594 406.964844 C 146.984375 407.34375 146.945312 407.726562 146.945312 408.113281 C 146.945312 408.496094 146.984375 408.878906 147.058594 409.257812 C 147.132812 409.636719 147.246094 410.003906 147.394531 410.363281 C 147.539062 410.71875 147.722656 411.058594 147.9375 411.378906 C 148.152344 411.699219 148.394531 411.996094 148.667969 412.269531 C 148.941406 412.542969 149.238281 412.789062 149.558594 413.003906 C 149.878906 413.21875 150.21875 413.398438 150.578125 413.546875 C 150.933594 413.695312 151.300781 413.804688 151.679688 413.878906 C 152.058594 413.957031 152.441406 413.992188 152.828125 413.992188 C 153.214844 413.992188 153.597656 413.957031 153.976562 413.878906 C 154.355469 413.804688 154.722656 413.695312 155.078125 413.546875 C 155.433594 413.398438 155.773438 413.21875 156.09375 413.003906 C 156.417969 412.789062 156.714844 412.542969 156.988281 412.269531 C 157.261719 411.996094 157.503906 411.699219 157.71875 411.378906 C 157.933594 411.058594 158.113281 410.71875 158.261719 410.363281 C 158.410156 410.003906 158.519531 409.636719 158.597656 409.257812 C 158.671875 408.878906 158.710938 408.496094 158.710938 408.113281 C 158.730469 407.714844 158.710938 407.316406 158.648438 406.921875 C 158.585938 406.527344 158.488281 406.144531 158.347656 405.769531 C 158.210938 405.394531 158.035156 405.039062 157.824219 404.703125 C 157.613281 404.363281 157.371094 404.050781 157.09375 403.761719 C 156.820312 403.472656 156.519531 403.214844 156.191406 402.984375 C 155.863281 402.757812 155.515625 402.566406 155.148438 402.410156 C 154.78125 402.253906 154.402344 402.132812 154.011719 402.054688 C 153.621094 401.972656 153.226562 401.933594 152.828125 401.933594 Z M 152.828125 402.230469 " fill-opacity="1" fill-rule="nonzero"/><path fill="#ffffff" d="M 346.46875 325.171875 C 346.082031 325.171875 345.703125 325.132812 345.324219 325.058594 C 344.945312 324.984375 344.574219 324.871094 344.21875 324.722656 C 343.863281 324.578125 343.523438 324.394531 343.203125 324.179688 C 342.878906 323.964844 342.582031 323.722656 342.3125 323.449219 C 342.039062 323.175781 341.792969 322.878906 341.578125 322.558594 C 341.363281 322.238281 341.183594 321.898438 341.035156 321.542969 C 340.886719 321.183594 340.777344 320.816406 340.699219 320.4375 C 340.625 320.058594 340.585938 319.675781 340.585938 319.289062 L 340.585938 295.761719 C 340.585938 295.375 340.625 294.992188 340.699219 294.613281 C 340.777344 294.234375 340.886719 293.867188 341.035156 293.511719 C 341.183594 293.152344 341.363281 292.8125 341.578125 292.492188 C 341.792969 292.171875 342.039062 291.875 342.3125 291.601562 C 342.582031 291.328125 342.878906 291.085938 343.203125 290.871094 C 343.523438 290.65625 343.863281 290.472656 344.21875 290.328125 C 344.574219 290.179688 344.945312 290.066406 345.324219 289.992188 C 345.703125 289.917969 346.082031 289.878906 346.46875 289.878906 C 346.855469 289.878906 347.238281 289.917969 347.617188 289.992188 C 347.996094 290.066406 348.363281 290.179688 348.722656 290.328125 C 349.078125 290.472656 349.417969 290.65625 349.738281 290.871094 C 350.058594 291.085938 350.355469 291.328125 350.628906 291.601562 C 350.902344 291.875 351.144531 292.171875 351.359375 292.492188 C 351.574219 292.8125 351.757812 293.152344 351.90625 293.511719 C 352.050781 293.867188 352.164062 294.234375 352.238281 294.613281 C 352.316406 294.992188 352.351562 295.375 352.351562 295.761719 L 352.351562 319.289062 C 352.351562 319.675781 352.316406 320.058594 352.238281 320.4375 C 352.164062 320.816406 352.050781 321.183594 351.90625 321.542969 C 351.757812 321.898438 351.574219 322.238281 351.359375 322.558594 C 351.144531 322.878906 350.902344 323.175781 350.628906 323.449219 C 350.355469 323.722656 350.058594 323.964844 349.738281 324.179688 C 349.417969 324.394531 349.078125 324.578125 348.722656 324.722656 C 348.363281 324.871094 347.996094 324.984375 347.617188 325.058594 C 347.238281 325.132812 346.855469 325.171875 346.46875 325.171875 Z M 346.46875 325.171875 " fill-opacity="1" fill-rule="nonzero"/><path fill="#ffffff" d="M 358.234375 313.40625 L 334.707031 313.40625 C 334.320312 313.40625 333.9375 313.371094 333.558594 313.292969 C 333.179688 313.21875 332.8125 313.109375 332.453125 312.960938 C 332.097656 312.8125 331.757812 312.632812 331.4375 312.417969 C 331.117188 312.203125 330.820312 311.957031 330.546875 311.683594 C 330.273438 311.410156 330.027344 311.113281 329.816406 310.792969 C 329.601562 310.472656 329.417969 310.132812 329.269531 309.777344 C 329.125 309.417969 329.011719 309.050781 328.9375 308.671875 C 328.859375 308.292969 328.824219 307.910156 328.824219 307.527344 C 328.824219 307.140625 328.859375 306.757812 328.9375 306.378906 C 329.011719 306 329.125 305.632812 329.269531 305.273438 C 329.417969 304.917969 329.601562 304.578125 329.816406 304.257812 C 330.027344 303.9375 330.273438 303.640625 330.546875 303.367188 C 330.820312 303.09375 331.117188 302.847656 331.4375 302.632812 C 331.757812 302.421875 332.097656 302.238281 332.453125 302.089844 C 332.8125 301.941406 333.179688 301.832031 333.558594 301.757812 C 333.9375 301.679688 334.320312 301.644531 334.707031 301.644531 L 358.234375 301.644531 C 358.621094 301.644531 359.003906 301.679688 359.382812 301.757812 C 359.761719 301.832031 360.128906 301.941406 360.484375 302.089844 C 360.84375 302.238281 361.179688 302.421875 361.503906 302.632812 C 361.824219 302.847656 362.121094 303.09375 362.394531 303.367188 C 362.667969 303.640625 362.910156 303.9375 363.125 304.257812 C 363.339844 304.578125 363.519531 304.917969 363.667969 305.273438 C 363.816406 305.632812 363.929688 306 364.003906 306.378906 C 364.078125 306.757812 364.117188 307.140625 364.117188 307.527344 C 364.117188 307.910156 364.078125 308.292969 364.003906 308.671875 C 363.929688 309.050781 363.816406 309.417969 363.667969 309.777344 C 363.519531 310.132812 363.339844 310.472656 363.125 310.792969 C 362.910156 311.113281 362.667969 311.410156 362.394531 311.683594 C 362.121094 311.957031 361.824219 312.203125 361.503906 312.417969 C 361.179688 312.632812 360.84375 312.8125 360.484375 312.960938 C 360.128906 313.109375 359.761719 313.21875 359.382812 313.292969 C 359.003906 313.371094 358.621094 313.40625 358.234375 313.40625 Z M 358.234375 313.40625 " fill-opacity="1" fill-rule="nonzero"/><path fill="#ffffff" d="M 314.824219 100.234375 C 314.4375 100.234375 314.054688 100.199219 313.675781 100.125 C 313.296875 100.046875 312.929688 99.9375 312.574219 99.789062 C 312.214844 99.640625 311.875 99.460938 311.554688 99.246094 C 311.234375 99.03125 310.9375 98.785156 310.664062 98.511719 C 310.390625 98.238281 310.148438 97.941406 309.933594 97.621094 C 309.71875 97.300781 309.535156 96.960938 309.390625 96.605469 C 309.242188 96.25 309.128906 95.878906 309.054688 95.5 C 308.980469 95.121094 308.941406 94.738281 308.941406 94.355469 L 308.941406 70.824219 C 308.941406 70.4375 308.980469 70.054688 309.054688 69.675781 C 309.128906 69.296875 309.242188 68.929688 309.390625 68.574219 C 309.535156 68.21875 309.71875 67.878906 309.933594 67.558594 C 310.148438 67.234375 310.390625 66.9375 310.664062 66.664062 C 310.9375 66.394531 311.234375 66.148438 311.554688 65.933594 C 311.875 65.71875 312.214844 65.539062 312.574219 65.390625 C 312.929688 65.242188 313.296875 65.132812 313.675781 65.054688 C 314.054688 64.980469 314.4375 64.941406 314.824219 64.941406 C 315.210938 64.941406 315.59375 64.980469 315.972656 65.054688 C 316.351562 65.132812 316.71875 65.242188 317.074219 65.390625 C 317.429688 65.539062 317.769531 65.71875 318.089844 65.933594 C 318.414062 66.148438 318.710938 66.394531 318.984375 66.664062 C 319.257812 66.9375 319.5 67.234375 319.714844 67.558594 C 319.929688 67.878906 320.109375 68.21875 320.257812 68.574219 C 320.40625 68.929688 320.515625 69.296875 320.59375 69.675781 C 320.667969 70.054688 320.707031 70.4375 320.707031 70.824219 L 320.707031 94.355469 C 320.707031 94.738281 320.667969 95.121094 320.59375 95.5 C 320.515625 95.878906 320.40625 96.25 320.257812 96.605469 C 320.109375 96.960938 319.929688 97.300781 319.714844 97.621094 C 319.5 97.941406 319.257812 98.238281 318.984375 98.511719 C 318.710938 98.785156 318.414062 99.03125 318.089844 99.246094 C 317.769531 99.460938 317.429688 99.640625 317.074219 99.789062 C 316.71875 99.9375 316.351562 100.046875 315.972656 100.125 C 315.59375 100.199219 315.210938 100.234375 314.824219 100.234375 Z M 314.824219 100.234375 " fill-opacity="1" fill-rule="nonzero"/><path fill="#ffffff" d="M 326.589844 88.472656 L 303.058594 88.472656 C 302.671875 88.472656 302.289062 88.433594 301.910156 88.359375 C 301.53125 88.285156 301.164062 88.171875 300.808594 88.023438 C 300.453125 87.875 300.113281 87.695312 299.792969 87.480469 C 299.46875 87.265625 299.171875 87.023438 298.898438 86.75 C 298.625 86.476562 298.382812 86.179688 298.167969 85.859375 C 297.953125 85.535156 297.773438 85.199219 297.625 84.839844 C 297.476562 84.484375 297.367188 84.117188 297.289062 83.738281 C 297.214844 83.359375 297.175781 82.976562 297.175781 82.589844 C 297.175781 82.203125 297.214844 81.820312 297.289062 81.441406 C 297.367188 81.0625 297.476562 80.695312 297.625 80.339844 C 297.773438 79.980469 297.953125 79.644531 298.167969 79.320312 C 298.382812 79 298.625 78.703125 298.898438 78.429688 C 299.171875 78.15625 299.46875 77.914062 299.792969 77.699219 C 300.113281 77.484375 300.453125 77.304688 300.808594 77.15625 C 301.164062 77.007812 301.53125 76.894531 301.910156 76.820312 C 302.289062 76.746094 302.671875 76.707031 303.058594 76.707031 L 326.589844 76.707031 C 326.972656 76.707031 327.355469 76.746094 327.734375 76.820312 C 328.113281 76.894531 328.480469 77.007812 328.839844 77.15625 C 329.195312 77.304688 329.535156 77.484375 329.855469 77.699219 C 330.175781 77.914062 330.472656 78.15625 330.746094 78.429688 C 331.019531 78.703125 331.265625 79 331.480469 79.320312 C 331.695312 79.644531 331.875 79.980469 332.023438 80.339844 C 332.171875 80.695312 332.28125 81.0625 332.355469 81.441406 C 332.433594 81.820312 332.46875 82.203125 332.46875 82.589844 C 332.46875 82.976562 332.433594 83.359375 332.355469 83.738281 C 332.28125 84.117188 332.171875 84.484375 332.023438 84.839844 C 331.875 85.199219 331.695312 85.535156 331.480469 85.859375 C 331.265625 86.179688 331.019531 86.476562 330.746094 86.75 C 330.472656 87.023438 330.175781 87.265625 329.855469 87.480469 C 329.535156 87.695312 329.195312 87.875 328.839844 88.023438 C 328.480469 88.171875 328.113281 88.285156 327.734375 88.359375 C 327.355469 88.433594 326.972656 88.472656 326.589844 88.472656 Z M 326.589844 88.472656 " fill-opacity="1" fill-rule="nonzero"/><g clip-path="url(#9e643fb8c5)"><path fill="#ffffff" d="M 543.347656 123.234375 C 542.664062 123.25 541.996094 123.148438 541.347656 122.933594 C 540.699219 122.714844 540.109375 122.394531 539.570312 121.96875 C 539.035156 121.546875 538.585938 121.042969 538.222656 120.464844 C 537.863281 119.882812 537.609375 119.257812 537.464844 118.589844 C 536.886719 116.289062 536.046875 114.089844 534.9375 111.992188 C 533.828125 109.894531 532.484375 107.960938 530.90625 106.1875 C 529.328125 104.414062 527.5625 102.859375 525.609375 101.511719 C 523.652344 100.167969 521.566406 99.074219 519.347656 98.234375 C 520.222656 101.195312 520.222656 104.15625 519.347656 107.117188 C 518.96875 108.292969 518.457031 109.40625 517.804688 110.457031 C 517.15625 111.507812 516.394531 112.46875 515.511719 113.332031 C 514.632812 114.199219 513.660156 114.945312 512.597656 115.578125 C 511.535156 116.207031 510.414062 116.699219 509.230469 117.058594 C 507.835938 117.496094 506.40625 117.761719 504.949219 117.859375 C 503.488281 117.957031 502.039062 117.882812 500.597656 117.640625 C 499.15625 117.394531 497.761719 116.984375 496.417969 116.410156 C 495.074219 115.832031 493.816406 115.109375 492.644531 114.234375 C 491.539062 113.46875 490.546875 112.585938 489.65625 111.578125 C 488.769531 110.574219 488.011719 109.476562 487.386719 108.289062 C 486.761719 107.101562 486.289062 105.855469 485.960938 104.554688 C 485.636719 103.253906 485.472656 101.929688 485.46875 100.589844 L 485.46875 99.882812 C 485.472656 99.078125 485.542969 98.277344 485.679688 97.484375 C 485.8125 96.6875 486.007812 95.910156 486.265625 95.144531 C 486.523438 94.382812 486.84375 93.644531 487.21875 92.933594 C 487.59375 92.21875 488.023438 91.542969 488.507812 90.898438 C 488.992188 90.253906 489.523438 89.652344 490.101562 89.089844 C 490.683594 88.53125 491.304688 88.019531 491.964844 87.5625 C 492.625 87.101562 493.316406 86.695312 494.042969 86.34375 C 494.769531 85.992188 495.519531 85.703125 496.289062 85.472656 L 483.761719 68.941406 C 483.546875 68.632812 483.363281 68.308594 483.214844 67.964844 C 483.0625 67.621094 482.945312 67.265625 482.859375 66.902344 C 482.777344 66.535156 482.730469 66.164062 482.714844 65.789062 C 482.703125 65.414062 482.726562 65.042969 482.785156 64.671875 C 482.84375 64.300781 482.9375 63.9375 483.066406 63.585938 C 483.191406 63.234375 483.351562 62.894531 483.546875 62.574219 C 483.738281 62.25 483.960938 61.949219 484.210938 61.671875 C 484.460938 61.390625 484.734375 61.136719 485.03125 60.910156 C 485.332031 60.683594 485.648438 60.484375 485.984375 60.320312 C 486.320312 60.152344 486.671875 60.019531 487.03125 59.921875 C 487.394531 59.820312 487.761719 59.753906 488.136719 59.726562 C 488.511719 59.699219 488.882812 59.703125 489.257812 59.746094 C 489.628906 59.789062 489.996094 59.867188 490.351562 59.976562 C 490.710938 60.089844 491.054688 60.234375 491.386719 60.414062 C 491.714844 60.589844 492.027344 60.800781 492.316406 61.035156 C 492.609375 61.273438 492.875 61.535156 493.113281 61.824219 L 510.171875 84 C 511.292969 84.058594 512.414062 84.164062 513.527344 84.308594 C 514.640625 84.457031 515.746094 84.648438 516.847656 84.882812 C 517.945312 85.121094 519.03125 85.398438 520.109375 85.71875 C 521.1875 86.042969 522.25 86.40625 523.296875 86.8125 C 524.34375 87.21875 525.375 87.664062 526.386719 88.152344 C 527.398438 88.640625 528.390625 89.167969 529.359375 89.734375 C 530.332031 90.300781 531.277344 90.902344 532.199219 91.546875 C 533.125 92.1875 534.019531 92.863281 534.886719 93.578125 C 535.757812 94.289062 536.597656 95.035156 537.40625 95.8125 C 538.214844 96.59375 538.992188 97.402344 539.738281 98.246094 C 540.484375 99.085938 541.195312 99.953125 541.871094 100.851562 C 542.546875 101.75 543.1875 102.671875 543.789062 103.621094 C 544.394531 104.570312 544.957031 105.539062 545.484375 106.53125 C 546.007812 107.527344 546.496094 108.539062 546.941406 109.570312 C 547.386719 110.601562 547.789062 111.648438 548.152344 112.710938 C 548.515625 113.777344 548.835938 114.851562 549.113281 115.941406 C 549.195312 116.320312 549.238281 116.703125 549.246094 117.089844 C 549.25 117.476562 549.21875 117.863281 549.148438 118.242188 C 549.082031 118.625 548.976562 118.996094 548.832031 119.355469 C 548.6875 119.714844 548.511719 120.058594 548.300781 120.382812 C 548.089844 120.707031 547.851562 121.007812 547.582031 121.289062 C 547.3125 121.566406 547.015625 121.8125 546.699219 122.03125 C 546.378906 122.253906 546.042969 122.4375 545.683594 122.589844 C 545.328125 122.746094 544.960938 122.859375 544.582031 122.941406 Z M 504.40625 96.058594 L 503.996094 96.058594 L 500.9375 96.414062 C 500.46875 96.414062 500.015625 96.5 499.582031 96.671875 C 499.144531 96.847656 498.757812 97.09375 498.417969 97.417969 C 498.078125 97.742188 497.8125 98.117188 497.617188 98.542969 C 497.421875 98.96875 497.3125 99.414062 497.289062 99.882812 L 497.289062 100.589844 C 497.347656 101.417969 497.585938 102.195312 497.996094 102.917969 C 498.410156 103.636719 498.957031 104.234375 499.644531 104.707031 C 500.492188 105.316406 501.433594 105.71875 502.460938 105.914062 C 503.488281 106.109375 504.511719 106.078125 505.523438 105.824219 C 506.109375 105.679688 506.617188 105.40625 507.058594 104.996094 C 507.496094 104.589844 507.808594 104.101562 507.996094 103.53125 C 508.160156 102.867188 508.164062 102.207031 508.007812 101.542969 C 507.855469 100.878906 507.554688 100.285156 507.113281 99.765625 Z M 504.40625 96.058594 " fill-opacity="1" fill-rule="nonzero"/></g><path fill="#ffffff" d="M 159.652344 157.941406 C 158.996094 157.9375 158.363281 157.828125 157.746094 157.613281 C 157.128906 157.398438 156.5625 157.089844 156.046875 156.6875 C 155.535156 156.28125 155.097656 155.808594 154.742188 155.257812 C 154.386719 154.710938 154.132812 154.121094 153.972656 153.484375 C 153.816406 152.851562 153.761719 152.207031 153.820312 151.558594 C 153.875 150.90625 154.035156 150.28125 154.296875 149.683594 C 154.5625 149.085938 154.914062 148.546875 155.359375 148.066406 C 155.800781 147.585938 156.3125 147.191406 156.886719 146.882812 L 172.652344 138.53125 C 174.546875 137.445312 176.296875 136.160156 177.902344 134.675781 C 179.503906 133.191406 180.917969 131.542969 182.140625 129.730469 C 183.363281 127.921875 184.367188 125.996094 185.148438 123.957031 C 185.929688 121.914062 186.46875 119.8125 186.769531 117.648438 C 187.109375 114.761719 187.753906 111.945312 188.710938 109.203125 C 189.664062 106.457031 190.902344 103.847656 192.425781 101.375 C 193.953125 98.902344 195.722656 96.621094 197.746094 94.535156 C 199.765625 92.449219 201.992188 90.601562 204.414062 89 L 222.0625 77.648438 C 222.386719 77.425781 222.726562 77.238281 223.089844 77.082031 C 223.453125 76.929688 223.824219 76.8125 224.210938 76.730469 C 224.59375 76.648438 224.984375 76.605469 225.375 76.601562 C 225.769531 76.597656 226.160156 76.632812 226.546875 76.703125 C 226.933594 76.777344 227.308594 76.886719 227.671875 77.03125 C 228.039062 77.179688 228.382812 77.359375 228.714844 77.574219 C 229.042969 77.789062 229.347656 78.035156 229.628906 78.308594 C 229.910156 78.582031 230.164062 78.882812 230.382812 79.207031 C 230.605469 79.53125 230.792969 79.875 230.949219 80.234375 C 231.105469 80.597656 231.222656 80.972656 231.300781 81.355469 C 231.382812 81.742188 231.425781 82.128906 231.429688 82.523438 C 231.433594 82.914062 231.402344 83.304688 231.328125 83.691406 C 231.257812 84.078125 231.148438 84.453125 231 84.820312 C 230.855469 85.183594 230.671875 85.53125 230.460938 85.859375 C 230.246094 86.191406 230 86.496094 229.722656 86.777344 C 229.449219 87.058594 229.148438 87.308594 228.824219 87.53125 L 211.179688 98.882812 C 209.488281 100 207.9375 101.28125 206.523438 102.730469 C 205.109375 104.175781 203.867188 105.757812 202.789062 107.472656 C 201.714844 109.1875 200.832031 110.996094 200.144531 112.902344 C 199.457031 114.804688 198.976562 116.757812 198.707031 118.765625 C 198.507812 120.324219 198.214844 121.867188 197.832031 123.390625 C 197.449219 124.917969 196.980469 126.414062 196.417969 127.882812 C 195.859375 129.351562 195.210938 130.785156 194.484375 132.175781 C 193.753906 133.570312 192.945312 134.914062 192.054688 136.210938 C 191.164062 137.507812 190.203125 138.746094 189.167969 139.929688 C 188.128906 141.113281 187.027344 142.230469 185.859375 143.28125 C 184.691406 144.335938 183.464844 145.316406 182.179688 146.222656 C 180.894531 147.128906 179.5625 147.957031 178.179688 148.707031 L 162.414062 157.117188 C 161.5625 157.625 160.640625 157.898438 159.652344 157.941406 Z M 159.652344 157.941406 " fill-opacity="1" fill-rule="nonzero"/><path fill="#ffffff" d="M 260.824219 232.644531 C 259.601562 232.644531 258.382812 232.585938 257.167969 232.464844 C 255.953125 232.34375 254.746094 232.167969 253.546875 231.929688 C 252.347656 231.6875 251.164062 231.394531 249.996094 231.039062 C 248.828125 230.683594 247.675781 230.273438 246.546875 229.804688 C 245.421875 229.335938 244.316406 228.816406 243.238281 228.238281 C 242.160156 227.664062 241.117188 227.035156 240.101562 226.355469 C 239.082031 225.675781 238.105469 224.949219 237.160156 224.175781 C 236.214844 223.398438 235.3125 222.578125 234.449219 221.714844 C 233.582031 220.851562 232.765625 219.945312 231.988281 219 C 231.214844 218.058594 230.488281 217.078125 229.808594 216.058594 C 229.132812 215.042969 228.503906 213.996094 227.929688 212.917969 C 227.351562 211.84375 226.832031 210.738281 226.363281 209.609375 C 225.898438 208.480469 225.488281 207.332031 225.132812 206.160156 C 224.777344 204.992188 224.484375 203.808594 224.246094 202.609375 C 224.007812 201.410156 223.828125 200.203125 223.710938 198.988281 C 223.589844 197.773438 223.53125 196.554688 223.53125 195.332031 C 223.53125 194.109375 223.59375 192.890625 223.714844 191.675781 C 223.832031 190.460938 224.011719 189.253906 224.253906 188.054688 C 224.492188 186.855469 224.789062 185.671875 225.144531 184.503906 C 225.5 183.335938 225.910156 182.1875 226.378906 181.058594 C 226.847656 179.929688 227.371094 178.828125 227.949219 177.75 C 228.523438 176.671875 229.152344 175.625 229.832031 174.609375 C 230.511719 173.59375 231.238281 172.613281 232.015625 171.671875 C 232.789062 170.726562 233.609375 169.824219 234.476562 168.960938 C 235.339844 168.097656 236.246094 167.277344 237.191406 166.503906 C 238.136719 165.730469 239.117188 165.003906 240.132812 164.324219 C 241.148438 163.648438 242.195312 163.019531 243.273438 162.445312 C 244.351562 161.871094 245.457031 161.351562 246.585938 160.882812 C 247.714844 160.417969 248.863281 160.007812 250.035156 159.652344 C 251.203125 159.300781 252.386719 159.003906 253.585938 158.769531 C 254.785156 158.53125 255.992188 158.351562 257.207031 158.234375 C 258.421875 158.117188 259.640625 158.058594 260.863281 158.058594 C 262.085938 158.058594 263.304688 158.121094 264.519531 158.242188 C 265.738281 158.363281 266.941406 158.542969 268.140625 158.78125 C 269.339844 159.023438 270.523438 159.320312 271.691406 159.675781 C 272.859375 160.03125 274.007812 160.445312 275.136719 160.914062 C 276.265625 161.382812 277.367188 161.90625 278.445312 162.484375 C 279.523438 163.0625 280.566406 163.6875 281.582031 164.371094 C 282.597656 165.050781 283.578125 165.777344 284.519531 166.554688 C 285.464844 167.332031 286.367188 168.152344 287.230469 169.015625 C 288.09375 169.882812 288.910156 170.785156 289.683594 171.730469 C 290.457031 172.675781 291.183594 173.660156 291.863281 174.675781 C 292.539062 175.691406 293.164062 176.738281 293.738281 177.816406 C 294.3125 178.898438 294.835938 180 295.300781 181.128906 C 295.765625 182.257812 296.175781 183.410156 296.527344 184.578125 C 296.882812 185.75 297.175781 186.933594 297.414062 188.132812 C 297.648438 189.332031 297.828125 190.539062 297.945312 191.753906 C 298.0625 192.96875 298.121094 194.1875 298.117188 195.410156 C 298.117188 196.628906 298.054688 197.847656 297.933594 199.0625 C 297.8125 200.277344 297.632812 201.480469 297.390625 202.679688 C 297.152344 203.875 296.855469 205.054688 296.5 206.222656 C 296.144531 207.390625 295.730469 208.539062 295.261719 209.664062 C 294.792969 210.789062 294.273438 211.890625 293.695312 212.96875 C 293.121094 214.042969 292.492188 215.085938 291.8125 216.101562 C 291.132812 217.113281 290.40625 218.09375 289.632812 219.035156 C 288.855469 219.976562 288.039062 220.878906 287.175781 221.742188 C 286.3125 222.605469 285.40625 223.421875 284.464844 224.195312 C 283.519531 224.96875 282.539062 225.695312 281.527344 226.371094 C 280.511719 227.050781 279.464844 227.675781 278.386719 228.25 C 277.3125 228.824219 276.210938 229.34375 275.082031 229.8125 C 273.957031 230.277344 272.808594 230.6875 271.640625 231.042969 C 270.472656 231.394531 269.289062 231.691406 268.09375 231.929688 C 266.894531 232.167969 265.691406 232.347656 264.476562 232.464844 C 263.261719 232.585938 262.046875 232.644531 260.824219 232.644531 Z M 260.824219 169.882812 C 259.988281 169.882812 259.15625 169.921875 258.324219 170.003906 C 257.492188 170.085938 256.664062 170.210938 255.84375 170.371094 C 255.023438 170.535156 254.214844 170.738281 253.414062 170.980469 C 252.613281 171.222656 251.828125 171.503906 251.054688 171.824219 C 250.28125 172.144531 249.527344 172.503906 248.789062 172.894531 C 248.054688 173.289062 247.335938 173.71875 246.640625 174.183594 C 245.945312 174.648438 245.277344 175.144531 244.628906 175.675781 C 243.984375 176.207031 243.363281 176.769531 242.773438 177.359375 C 242.183594 177.949219 241.621094 178.570312 241.089844 179.214844 C 240.558594 179.863281 240.0625 180.53125 239.597656 181.226562 C 239.132812 181.921875 238.703125 182.640625 238.308594 183.375 C 237.917969 184.113281 237.558594 184.867188 237.238281 185.640625 C 236.917969 186.414062 236.636719 187.199219 236.394531 188 C 236.152344 188.800781 235.949219 189.609375 235.785156 190.429688 C 235.625 191.25 235.5 192.078125 235.417969 192.910156 C 235.335938 193.742188 235.296875 194.574219 235.296875 195.410156 C 235.296875 196.246094 235.335938 197.082031 235.417969 197.914062 C 235.5 198.746094 235.625 199.570312 235.785156 200.390625 C 235.949219 201.210938 236.152344 202.019531 236.394531 202.820312 C 236.636719 203.621094 236.917969 204.40625 237.238281 205.179688 C 237.558594 205.953125 237.917969 206.707031 238.308594 207.445312 C 238.703125 208.183594 239.132812 208.898438 239.597656 209.59375 C 240.0625 210.289062 240.558594 210.960938 241.089844 211.605469 C 241.621094 212.253906 242.183594 212.871094 242.773438 213.460938 C 243.363281 214.054688 243.984375 214.613281 244.628906 215.144531 C 245.277344 215.675781 245.945312 216.171875 246.640625 216.636719 C 247.335938 217.101562 248.054688 217.53125 248.789062 217.925781 C 249.527344 218.320312 250.28125 218.675781 251.054688 218.996094 C 251.828125 219.316406 252.613281 219.597656 253.414062 219.839844 C 254.214844 220.082031 255.023438 220.285156 255.84375 220.449219 C 256.664062 220.613281 257.492188 220.734375 258.324219 220.816406 C 259.15625 220.898438 259.988281 220.9375 260.824219 220.9375 C 261.660156 220.9375 262.496094 220.898438 263.328125 220.816406 C 264.160156 220.734375 264.984375 220.613281 265.804688 220.449219 C 266.625 220.285156 267.433594 220.082031 268.234375 219.839844 C 269.035156 219.597656 269.820312 219.316406 270.59375 218.996094 C 271.367188 218.675781 272.121094 218.320312 272.859375 217.925781 C 273.597656 217.53125 274.3125 217.101562 275.007812 216.636719 C 275.703125 216.171875 276.375 215.675781 277.019531 215.144531 C 277.667969 214.613281 278.285156 214.054688 278.875 213.460938 C 279.46875 212.871094 280.027344 212.253906 280.558594 211.605469 C 281.089844 210.960938 281.585938 210.289062 282.050781 209.59375 C 282.515625 208.898438 282.945312 208.183594 283.339844 207.445312 C 283.734375 206.707031 284.089844 205.953125 284.410156 205.179688 C 284.730469 204.40625 285.011719 203.621094 285.253906 202.820312 C 285.496094 202.019531 285.699219 201.210938 285.863281 200.390625 C 286.027344 199.570312 286.148438 198.746094 286.230469 197.914062 C 286.3125 197.082031 286.355469 196.246094 286.355469 195.410156 C 286.355469 194.574219 286.316406 193.738281 286.234375 192.90625 C 286.15625 192.074219 286.035156 191.246094 285.871094 190.425781 C 285.710938 189.605469 285.507812 188.792969 285.269531 187.992188 C 285.027344 187.191406 284.746094 186.40625 284.425781 185.632812 C 284.105469 184.859375 283.75 184.101562 283.355469 183.363281 C 282.964844 182.625 282.535156 181.910156 282.070312 181.214844 C 281.605469 180.519531 281.109375 179.847656 280.578125 179.199219 C 280.046875 178.550781 279.484375 177.933594 278.894531 177.339844 C 278.300781 176.75 277.683594 176.1875 277.035156 175.660156 C 276.390625 175.128906 275.71875 174.628906 275.023438 174.164062 C 274.324219 173.703125 273.609375 173.273438 272.871094 172.878906 C 272.132812 172.484375 271.375 172.128906 270.601562 171.808594 C 269.832031 171.488281 269.042969 171.210938 268.242188 170.96875 C 267.441406 170.726562 266.628906 170.523438 265.808594 170.363281 C 264.988281 170.199219 264.160156 170.078125 263.328125 170 C 262.496094 169.917969 261.660156 169.878906 260.824219 169.882812 Z M 260.824219 169.882812 " fill-opacity="1" fill-rule="nonzero"/><path fill="#ffffff" d="M 467.585938 232.644531 C 466.363281 232.644531 465.144531 232.585938 463.929688 232.464844 C 462.710938 232.34375 461.503906 232.167969 460.308594 231.929688 C 459.109375 231.6875 457.925781 231.394531 456.753906 231.039062 C 455.585938 230.683594 454.4375 230.273438 453.308594 229.804688 C 452.179688 229.335938 451.078125 228.816406 450 228.238281 C 448.921875 227.664062 447.875 227.035156 446.859375 226.355469 C 445.84375 225.675781 444.863281 224.949219 443.917969 224.175781 C 442.976562 223.398438 442.070312 222.578125 441.207031 221.714844 C 440.34375 220.851562 439.523438 219.945312 438.75 219 C 437.976562 218.058594 437.25 217.078125 436.570312 216.058594 C 435.890625 215.042969 435.265625 213.996094 434.6875 212.917969 C 434.113281 211.84375 433.59375 210.738281 433.125 209.609375 C 432.65625 208.480469 432.246094 207.332031 431.894531 206.160156 C 431.539062 204.992188 431.242188 203.808594 431.003906 202.609375 C 430.765625 201.410156 430.589844 200.203125 430.46875 198.988281 C 430.351562 197.773438 430.289062 196.554688 430.292969 195.332031 C 430.292969 194.109375 430.351562 192.890625 430.472656 191.675781 C 430.59375 190.460938 430.773438 189.253906 431.011719 188.054688 C 431.25 186.855469 431.546875 185.671875 431.902344 184.503906 C 432.257812 183.335938 432.671875 182.1875 433.140625 181.058594 C 433.609375 179.929688 434.128906 178.828125 434.707031 177.75 C 435.285156 176.671875 435.914062 175.625 436.589844 174.609375 C 437.269531 173.59375 438 172.613281 438.773438 171.671875 C 439.550781 170.726562 440.371094 169.824219 441.234375 168.960938 C 442.101562 168.097656 443.003906 167.277344 443.949219 166.503906 C 444.894531 165.730469 445.875 165.003906 446.890625 164.324219 C 447.910156 163.648438 448.957031 163.019531 450.035156 162.445312 C 451.113281 161.871094 452.214844 161.351562 453.34375 160.882812 C 454.472656 160.417969 455.625 160.007812 456.792969 159.652344 C 457.960938 159.300781 459.148438 159.003906 460.34375 158.769531 C 461.542969 158.53125 462.75 158.351562 463.96875 158.234375 C 465.183594 158.117188 466.402344 158.058594 467.625 158.058594 C 468.847656 158.058594 470.066406 158.121094 471.28125 158.242188 C 472.496094 158.363281 473.703125 158.542969 474.902344 158.78125 C 476.097656 159.023438 477.28125 159.320312 478.453125 159.675781 C 479.621094 160.03125 480.769531 160.445312 481.898438 160.914062 C 483.027344 161.382812 484.128906 161.90625 485.203125 162.484375 C 486.28125 163.0625 487.328125 163.6875 488.34375 164.371094 C 489.359375 165.050781 490.335938 165.777344 491.28125 166.554688 C 492.222656 167.332031 493.128906 168.152344 493.988281 169.015625 C 494.851562 169.882812 495.671875 170.785156 496.445312 171.730469 C 497.21875 172.675781 497.945312 173.660156 498.621094 174.675781 C 499.300781 175.691406 499.925781 176.738281 500.5 177.816406 C 501.074219 178.898438 501.59375 180 502.058594 181.128906 C 502.527344 182.257812 502.933594 183.410156 503.289062 184.578125 C 503.640625 185.75 503.9375 186.933594 504.171875 188.132812 C 504.410156 189.332031 504.585938 190.539062 504.703125 191.753906 C 504.820312 192.96875 504.878906 194.1875 504.878906 195.410156 C 504.875 196.628906 504.816406 197.847656 504.691406 199.0625 C 504.570312 200.277344 504.390625 201.480469 504.152344 202.679688 C 503.910156 203.875 503.613281 205.054688 503.257812 206.222656 C 502.902344 207.390625 502.492188 208.539062 502.023438 209.664062 C 501.554688 210.789062 501.03125 211.890625 500.457031 212.96875 C 499.878906 214.042969 499.25 215.085938 498.574219 216.101562 C 497.894531 217.113281 497.167969 218.09375 496.390625 219.035156 C 495.617188 219.976562 494.796875 220.878906 493.933594 221.742188 C 493.070312 222.605469 492.167969 223.421875 491.222656 224.195312 C 490.28125 224.96875 489.300781 225.695312 488.285156 226.371094 C 487.269531 227.050781 486.226562 227.675781 485.148438 228.25 C 484.070312 228.824219 482.96875 229.34375 481.84375 229.8125 C 480.714844 230.277344 479.566406 230.6875 478.398438 231.042969 C 477.230469 231.394531 476.050781 231.691406 474.851562 231.929688 C 473.65625 232.167969 472.449219 232.347656 471.238281 232.464844 C 470.023438 232.585938 468.804688 232.644531 467.585938 232.644531 Z M 467.585938 169.882812 C 466.75 169.882812 465.914062 169.921875 465.082031 170.003906 C 464.25 170.085938 463.425781 170.210938 462.605469 170.371094 C 461.785156 170.535156 460.972656 170.738281 460.175781 170.980469 C 459.375 171.222656 458.585938 171.503906 457.816406 171.824219 C 457.042969 172.144531 456.289062 172.503906 455.550781 172.894531 C 454.8125 173.289062 454.097656 173.71875 453.402344 174.183594 C 452.707031 174.648438 452.035156 175.144531 451.390625 175.675781 C 450.742188 176.207031 450.125 176.769531 449.535156 177.359375 C 448.941406 177.949219 448.382812 178.570312 447.851562 179.214844 C 447.320312 179.863281 446.824219 180.53125 446.359375 181.226562 C 445.894531 181.921875 445.464844 182.640625 445.070312 183.375 C 444.675781 184.113281 444.320312 184.867188 444 185.640625 C 443.679688 186.414062 443.398438 187.199219 443.15625 188 C 442.914062 188.800781 442.710938 189.609375 442.546875 190.429688 C 442.382812 191.25 442.261719 192.078125 442.179688 192.910156 C 442.097656 193.742188 442.054688 194.574219 442.054688 195.410156 C 442.054688 196.246094 442.097656 197.082031 442.179688 197.914062 C 442.261719 198.746094 442.382812 199.570312 442.546875 200.390625 C 442.710938 201.210938 442.914062 202.019531 443.15625 202.820312 C 443.398438 203.621094 443.679688 204.40625 444 205.179688 C 444.320312 205.953125 444.675781 206.707031 445.070312 207.445312 C 445.464844 208.183594 445.894531 208.898438 446.359375 209.59375 C 446.824219 210.289062 447.320312 210.960938 447.851562 211.605469 C 448.382812 212.253906 448.941406 212.871094 449.535156 213.460938 C 450.125 214.054688 450.742188 214.613281 451.390625 215.144531 C 452.035156 215.675781 452.707031 216.171875 453.402344 216.636719 C 454.097656 217.101562 454.8125 217.53125 455.550781 217.925781 C 456.289062 218.320312 457.042969 218.675781 457.816406 218.996094 C 458.585938 219.316406 459.375 219.597656 460.175781 219.839844 C 460.972656 220.082031 461.785156 220.285156 462.605469 220.449219 C 463.425781 220.613281 464.25 220.734375 465.082031 220.816406 C 465.914062 220.898438 466.75 220.9375 467.585938 220.9375 C 468.421875 220.9375 469.253906 220.898438 470.085938 220.816406 C 470.917969 220.734375 471.746094 220.613281 472.566406 220.449219 C 473.386719 220.285156 474.195312 220.082031 474.996094 219.839844 C 475.796875 219.597656 476.582031 219.316406 477.355469 218.996094 C 478.125 218.675781 478.882812 218.320312 479.617188 217.925781 C 480.355469 217.53125 481.074219 217.101562 481.769531 216.636719 C 482.464844 216.171875 483.132812 215.675781 483.78125 215.144531 C 484.425781 214.613281 485.046875 214.054688 485.636719 213.460938 C 486.226562 212.871094 486.789062 212.253906 487.320312 211.605469 C 487.847656 210.960938 488.347656 210.289062 488.8125 209.59375 C 489.277344 208.898438 489.707031 208.183594 490.097656 207.445312 C 490.492188 206.707031 490.851562 205.953125 491.171875 205.179688 C 491.492188 204.40625 491.773438 203.621094 492.015625 202.820312 C 492.257812 202.019531 492.460938 201.210938 492.625 200.390625 C 492.785156 199.570312 492.910156 198.746094 492.992188 197.914062 C 493.074219 197.082031 493.113281 196.246094 493.113281 195.410156 C 493.117188 194.574219 493.078125 193.738281 492.996094 192.90625 C 492.914062 192.074219 492.792969 191.246094 492.632812 190.425781 C 492.472656 189.605469 492.269531 188.792969 492.027344 187.992188 C 491.785156 187.191406 491.503906 186.40625 491.1875 185.632812 C 490.867188 184.859375 490.511719 184.101562 490.117188 183.363281 C 489.722656 182.625 489.292969 181.910156 488.828125 181.214844 C 488.363281 180.519531 487.867188 179.847656 487.335938 179.199219 C 486.804688 178.550781 486.246094 177.933594 485.652344 177.339844 C 485.0625 176.75 484.441406 176.1875 483.796875 175.660156 C 483.148438 175.128906 482.476562 174.628906 481.78125 174.164062 C 481.085938 173.703125 480.367188 173.273438 479.628906 172.878906 C 478.894531 172.484375 478.136719 172.128906 477.363281 171.808594 C 476.589844 171.488281 475.804688 171.210938 475.003906 170.96875 C 474.199219 170.726562 473.390625 170.523438 472.570312 170.363281 C 471.75 170.199219 470.921875 170.078125 470.089844 170 C 469.257812 169.917969 468.421875 169.878906 467.585938 169.882812 Z M 467.585938 169.882812 " fill-opacity="1" fill-rule="nonzero"/><g clip-path="url(#00affb49ac)"><path fill="#ffffff" d="M 311.175781 528.578125 C 310.378906 528.582031 309.578125 528.539062 308.785156 528.457031 C 307.988281 528.375 307.199219 528.253906 306.417969 528.089844 C 305.636719 527.925781 304.863281 527.722656 304.101562 527.480469 C 303.339844 527.234375 302.59375 526.953125 301.859375 526.632812 C 301.128906 526.308594 300.414062 525.953125 299.71875 525.558594 C 299.023438 525.160156 298.351562 524.730469 297.703125 524.265625 C 297.050781 523.800781 296.425781 523.304688 295.828125 522.773438 C 295.230469 522.246094 294.660156 521.683594 294.121094 521.097656 C 293.578125 520.507812 293.070312 519.890625 292.59375 519.25 C 292.117188 518.609375 291.675781 517.941406 291.265625 517.253906 C 290.859375 516.566406 290.488281 515.859375 290.152344 515.136719 C 289.816406 514.410156 289.523438 513.667969 289.265625 512.910156 C 289.007812 512.152344 288.789062 511.386719 288.609375 510.605469 C 288.433594 509.828125 288.296875 509.039062 288.199219 508.246094 C 288.105469 507.453125 288.046875 506.65625 288.035156 505.855469 C 288.019531 505.058594 288.050781 504.257812 288.117188 503.460938 L 292.707031 448.992188 C 293.125 444.609375 292.90625 440.261719 292.042969 435.945312 C 291.183594 431.628906 289.71875 427.527344 287.648438 423.640625 L 266.355469 385.757812 C 266.011719 385.148438 265.589844 384.597656 265.09375 384.105469 C 264.59375 383.613281 264.039062 383.199219 263.421875 382.867188 C 262.808594 382.53125 262.15625 382.292969 261.472656 382.140625 C 260.789062 381.992188 260.097656 381.941406 259.398438 381.984375 C 258.699219 382.03125 258.023438 382.175781 257.363281 382.414062 C 256.707031 382.652344 256.09375 382.976562 255.527344 383.386719 C 254.960938 383.800781 254.464844 384.28125 254.035156 384.835938 C 253.605469 385.390625 253.261719 385.992188 253 386.640625 L 241.707031 415.523438 C 236.714844 428.269531 233.457031 441.445312 231.941406 455.050781 L 226.0625 509.226562 C 225.984375 509.9375 225.875 510.640625 225.726562 511.335938 C 225.582031 512.035156 225.402344 512.722656 225.191406 513.402344 C 224.976562 514.085938 224.730469 514.753906 224.453125 515.410156 C 224.175781 516.066406 223.863281 516.707031 223.523438 517.332031 C 223.179688 517.957031 222.808594 518.566406 222.40625 519.152344 C 222.007812 519.742188 221.578125 520.3125 221.121094 520.859375 C 220.664062 521.40625 220.179688 521.929688 219.671875 522.425781 C 219.164062 522.925781 218.628906 523.402344 218.074219 523.847656 C 217.519531 524.296875 216.945312 524.714844 216.347656 525.105469 C 215.753906 525.496094 215.136719 525.855469 214.507812 526.1875 C 213.875 526.515625 213.230469 526.816406 212.566406 527.082031 C 211.90625 527.351562 211.234375 527.582031 210.550781 527.785156 C 209.867188 527.984375 209.175781 528.152344 208.472656 528.285156 C 207.773438 528.417969 207.070312 528.515625 206.359375 528.582031 C 205.648438 528.644531 204.9375 528.671875 204.222656 528.667969 C 203.511719 528.660156 202.800781 528.617188 202.089844 528.542969 C 201.382812 528.464844 200.679688 528.355469 199.980469 528.210938 C 199.285156 528.066406 198.59375 527.886719 197.914062 527.671875 C 197.234375 527.460938 196.566406 527.214844 195.910156 526.9375 C 195.253906 526.65625 194.613281 526.347656 193.988281 526.007812 C 193.359375 525.664062 192.753906 525.292969 192.164062 524.894531 C 191.574219 524.492188 191.007812 524.0625 190.460938 523.605469 C 189.914062 523.148438 189.390625 522.664062 188.890625 522.15625 C 188.390625 521.648438 187.914062 521.117188 187.46875 520.5625 C 187.019531 520.007812 186.601562 519.433594 186.210938 518.835938 C 185.820312 518.238281 185.457031 517.625 185.128906 516.996094 C 184.796875 516.363281 184.5 515.71875 184.230469 515.054688 C 183.964844 514.394531 183.730469 513.722656 183.527344 513.039062 C 183.328125 512.355469 183.160156 511.664062 183.027344 510.960938 C 182.894531 510.261719 182.796875 509.558594 182.730469 508.847656 C 182.667969 508.136719 182.640625 507.425781 182.644531 506.710938 C 182.652344 506 182.691406 505.289062 182.769531 504.578125 L 189.121094 443.699219 C 190.367188 431.914062 192.816406 420.382812 196.472656 409.113281 L 207.296875 376.054688 L 208.53125 292.054688 C 208.546875 291.054688 208.335938 290.105469 207.902344 289.203125 C 207.464844 288.304688 206.851562 287.550781 206.0625 286.9375 C 205.273438 286.316406 204.382812 285.914062 203.394531 285.726562 C 202.410156 285.539062 201.433594 285.589844 200.472656 285.878906 L 170.589844 294.46875 C 169.605469 294.746094 168.601562 294.953125 167.585938 295.085938 C 166.570312 295.21875 165.546875 295.273438 164.523438 295.253906 C 163.496094 295.238281 162.476562 295.144531 161.464844 294.976562 C 160.453125 294.804688 159.460938 294.566406 158.484375 294.25 C 157.507812 293.933594 156.558594 293.550781 155.640625 293.09375 C 154.722656 292.640625 153.839844 292.121094 152.996094 291.535156 C 152.15625 290.953125 151.359375 290.308594 150.609375 289.609375 C 149.863281 288.90625 149.171875 288.152344 148.535156 287.351562 L 115.535156 245.292969 C 115.125 244.765625 114.738281 244.222656 114.382812 243.65625 C 114.023438 243.09375 113.695312 242.515625 113.394531 241.917969 C 113.097656 241.320312 112.824219 240.714844 112.585938 240.089844 C 112.34375 239.46875 112.136719 238.835938 111.957031 238.191406 C 111.78125 237.550781 111.632812 236.898438 111.519531 236.242188 C 111.40625 235.582031 111.324219 234.921875 111.273438 234.257812 C 111.226562 233.589844 111.207031 232.925781 111.222656 232.257812 C 111.242188 231.589844 111.289062 230.925781 111.371094 230.265625 C 111.453125 229.601562 111.566406 228.945312 111.710938 228.292969 C 111.859375 227.644531 112.035156 227 112.246094 226.367188 C 112.457031 225.734375 112.695312 225.113281 112.964844 224.5 C 113.234375 223.890625 113.535156 223.296875 113.863281 222.714844 C 114.191406 222.136719 114.550781 221.570312 114.933594 221.027344 C 115.320312 220.480469 115.726562 219.957031 116.164062 219.449219 C 116.601562 218.945312 117.058594 218.460938 117.542969 218.003906 C 118.027344 217.542969 118.53125 217.105469 119.058594 216.695312 C 119.582031 216.285156 120.128906 215.902344 120.691406 215.546875 C 121.257812 215.1875 121.835938 214.859375 122.433594 214.558594 C 123.027344 214.261719 123.636719 213.988281 124.261719 213.75 C 124.882812 213.511719 125.515625 213.300781 126.160156 213.125 C 126.800781 212.945312 127.453125 212.800781 128.109375 212.6875 C 128.765625 212.570312 129.429688 212.492188 130.09375 212.441406 C 130.757812 212.394531 131.425781 212.375 132.09375 212.394531 C 132.761719 212.410156 133.425781 212.457031 134.085938 212.539062 C 134.75 212.621094 135.40625 212.738281 136.058594 212.882812 C 136.707031 213.03125 137.351562 213.207031 137.984375 213.417969 C 138.617188 213.628906 139.238281 213.867188 139.847656 214.136719 C 140.457031 214.410156 141.054688 214.707031 141.632812 215.039062 C 142.214844 215.367188 142.777344 215.722656 143.324219 216.109375 C 143.867188 216.492188 144.394531 216.902344 144.898438 217.339844 C 145.402344 217.773438 145.886719 218.234375 146.347656 218.71875 C 146.804688 219.203125 147.242188 219.707031 147.652344 220.234375 L 167.769531 246.175781 C 168.320312 246.878906 168.964844 247.492188 169.703125 248.003906 C 170.441406 248.515625 171.234375 248.90625 172.089844 249.179688 C 172.945312 249.453125 173.820312 249.59375 174.71875 249.601562 C 175.617188 249.613281 176.496094 249.488281 177.355469 249.234375 L 229.941406 233.761719 C 231.75 233.257812 233.59375 233.023438 235.472656 233.058594 L 270.765625 233.820312 C 271.746094 233.863281 272.71875 233.792969 273.679688 233.613281 C 274.644531 233.4375 275.578125 233.15625 276.480469 232.769531 C 277.378906 232.382812 278.226562 231.898438 279.019531 231.324219 C 279.8125 230.746094 280.53125 230.089844 281.175781 229.351562 L 306.765625 201.644531 L 327.941406 136.941406 C 328.25 136 328.625 135.082031 329.070312 134.191406 C 329.511719 133.304688 330.015625 132.453125 330.578125 131.636719 C 331.144531 130.820312 331.765625 130.046875 332.441406 129.320312 C 333.117188 128.59375 333.839844 127.917969 334.613281 127.296875 C 335.386719 126.675781 336.203125 126.113281 337.058594 125.605469 C 337.910156 125.101562 338.796875 124.660156 339.714844 124.285156 C 340.632812 123.90625 341.574219 123.597656 342.539062 123.355469 C 343.5 123.117188 344.476562 122.945312 345.464844 122.84375 C 346.453125 122.742188 347.441406 122.714844 348.433594 122.757812 C 349.425781 122.796875 350.40625 122.910156 351.382812 123.09375 C 352.359375 123.28125 353.316406 123.53125 354.253906 123.855469 C 355.195312 124.175781 356.105469 124.566406 356.988281 125.019531 C 357.871094 125.472656 358.71875 125.984375 359.527344 126.5625 C 360.335938 127.136719 361.097656 127.765625 361.816406 128.453125 C 362.535156 129.140625 363.199219 129.871094 363.8125 130.652344 C 364.421875 131.433594 364.976562 132.257812 365.46875 133.117188 C 366.167969 134.332031 366.734375 135.605469 367.167969 136.933594 C 367.605469 138.265625 367.902344 139.625 368.058594 141.015625 C 368.214844 142.40625 368.230469 143.800781 368.101562 145.195312 C 367.972656 146.589844 367.703125 147.957031 367.292969 149.292969 L 345.941406 219.878906 C 345.660156 220.730469 345.226562 221.496094 344.648438 222.175781 L 307.117188 263.351562 C 305.945312 264.636719 305.046875 266.09375 304.417969 267.714844 C 303.789062 269.339844 303.472656 271.019531 303.472656 272.761719 L 304.414062 362.464844 L 332.292969 413.171875 C 334.910156 417.949219 336.796875 423 337.949219 428.324219 C 339.097656 433.652344 339.46875 439.03125 339.058594 444.464844 L 334.707031 507.167969 C 334.648438 507.898438 334.558594 508.621094 334.4375 509.34375 C 334.3125 510.0625 334.152344 510.777344 333.960938 511.480469 C 333.769531 512.1875 333.546875 512.882812 333.289062 513.566406 C 333.03125 514.25 332.742188 514.921875 332.421875 515.578125 C 332.101562 516.234375 331.75 516.875 331.367188 517.496094 C 330.988281 518.121094 330.578125 518.726562 330.140625 519.3125 C 329.699219 519.894531 329.234375 520.457031 328.742188 521 C 328.25 521.539062 327.734375 522.054688 327.195312 522.546875 C 326.65625 523.039062 326.089844 523.503906 325.507812 523.945312 C 324.921875 524.382812 324.316406 524.792969 323.695312 525.175781 C 323.070312 525.554688 322.429688 525.90625 321.773438 526.230469 C 321.117188 526.550781 320.445312 526.839844 319.761719 527.097656 C 319.078125 527.355469 318.382812 527.578125 317.679688 527.769531 C 316.972656 527.960938 316.261719 528.121094 315.539062 528.246094 C 314.820312 528.371094 314.09375 528.460938 313.367188 528.515625 C 312.636719 528.570312 311.90625 528.59375 311.175781 528.578125 Z M 259.882812 370.171875 C 261.59375 370.167969 263.277344 370.390625 264.929688 370.84375 C 266.578125 371.292969 268.144531 371.949219 269.617188 372.820312 C 271.09375 373.6875 272.425781 374.738281 273.617188 375.964844 C 274.8125 377.191406 275.820312 378.554688 276.648438 380.054688 L 297.707031 417.933594 C 300.429688 422.8125 302.375 427.984375 303.550781 433.449219 C 304.722656 438.910156 305.066406 444.425781 304.589844 449.992188 L 300 504.460938 C 299.9375 505.242188 299.949219 506.015625 300.046875 506.792969 C 300.140625 507.566406 300.3125 508.324219 300.5625 509.0625 C 300.8125 509.804688 301.136719 510.511719 301.53125 511.183594 C 301.925781 511.855469 302.386719 512.484375 302.910156 513.0625 C 303.433594 513.640625 304.011719 514.160156 304.640625 514.621094 C 305.273438 515.082031 305.945312 515.472656 306.65625 515.796875 C 307.367188 516.117188 308.101562 516.367188 308.863281 516.539062 C 309.625 516.710938 310.394531 516.800781 311.175781 516.816406 C 311.898438 516.820312 312.617188 516.757812 313.328125 516.628906 C 314.039062 516.5 314.734375 516.308594 315.410156 516.050781 C 316.085938 515.796875 316.734375 515.480469 317.351562 515.105469 C 317.96875 514.726562 318.546875 514.300781 319.085938 513.816406 C 319.625 513.335938 320.117188 512.808594 320.558594 512.234375 C 321 511.660156 321.386719 511.054688 321.714844 510.410156 C 322.042969 509.765625 322.3125 509.097656 322.519531 508.40625 C 322.722656 507.710938 322.863281 507.003906 322.941406 506.285156 L 327.589844 443.226562 C 327.910156 438.925781 327.613281 434.667969 326.691406 430.449219 C 325.769531 426.234375 324.265625 422.238281 322.175781 418.464844 L 293.53125 366.347656 C 293.0625 365.484375 292.828125 364.5625 292.824219 363.582031 L 291.882812 272.410156 C 291.859375 270.792969 291.988281 269.1875 292.269531 267.597656 C 292.546875 266.007812 292.976562 264.453125 293.550781 262.945312 C 294.121094 261.433594 294.832031 259.992188 295.679688 258.613281 C 296.527344 257.238281 297.496094 255.953125 298.589844 254.761719 L 335.234375 214.703125 L 356.175781 145.351562 C 356.523438 144.191406 356.632812 143.007812 356.5 141.804688 C 356.367188 140.601562 356.003906 139.46875 355.410156 138.410156 C 354.777344 137.324219 353.945312 136.417969 352.917969 135.691406 C 351.894531 134.960938 350.761719 134.476562 349.527344 134.234375 C 348.992188 134.113281 348.445312 134.039062 347.894531 134.015625 C 347.339844 133.992188 346.792969 134.023438 346.246094 134.101562 C 345.699219 134.179688 345.164062 134.304688 344.640625 134.484375 C 344.117188 134.660156 343.613281 134.882812 343.132812 135.152344 C 342.652344 135.421875 342.199219 135.730469 341.773438 136.085938 C 341.347656 136.4375 340.957031 136.828125 340.605469 137.25 C 340.253906 137.675781 339.941406 138.128906 339.671875 138.609375 C 339.402344 139.09375 339.175781 139.59375 339 140.117188 L 317.53125 206.410156 C 317.304688 207.222656 316.890625 207.929688 316.292969 208.527344 L 289.941406 237.292969 C 288.71875 238.625 287.367188 239.816406 285.890625 240.863281 C 284.414062 241.910156 282.84375 242.789062 281.183594 243.503906 C 279.519531 244.21875 277.800781 244.75 276.027344 245.101562 C 274.25 245.453125 272.457031 245.613281 270.648438 245.585938 L 235.355469 244.820312 C 234.726562 244.699219 234.101562 244.699219 233.472656 244.820312 L 180.710938 260.46875 C 179.710938 260.785156 178.691406 261.027344 177.65625 261.1875 C 176.617188 261.351562 175.574219 261.433594 174.527344 261.433594 C 173.476562 261.433594 172.433594 261.355469 171.398438 261.195312 C 170.363281 261.035156 169.34375 260.796875 168.34375 260.480469 C 167.34375 260.164062 166.371094 259.773438 165.433594 259.304688 C 164.492188 258.839844 163.59375 258.304688 162.738281 257.699219 C 161.878906 257.09375 161.074219 256.425781 160.320312 255.699219 C 159.566406 254.96875 158.871094 254.1875 158.238281 253.351562 L 138.121094 227.46875 C 137.773438 227.023438 137.386719 226.613281 136.957031 226.246094 C 136.53125 225.875 136.070312 225.550781 135.578125 225.273438 C 135.085938 224.992188 134.574219 224.765625 134.035156 224.585938 C 133.5 224.410156 132.949219 224.285156 132.386719 224.214844 C 131.828125 224.144531 131.265625 224.132812 130.699219 224.171875 C 130.136719 224.214844 129.582031 224.308594 129.035156 224.460938 C 128.492188 224.609375 127.964844 224.8125 127.460938 225.066406 C 126.957031 225.320312 126.480469 225.621094 126.035156 225.96875 C 125.585938 226.316406 125.179688 226.703125 124.808594 227.132812 C 124.441406 227.558594 124.117188 228.019531 123.835938 228.511719 C 123.558594 229.003906 123.328125 229.519531 123.152344 230.054688 C 122.972656 230.589844 122.851562 231.140625 122.78125 231.703125 C 122.710938 232.261719 122.695312 232.824219 122.738281 233.390625 C 122.777344 233.953125 122.875 234.507812 123.023438 235.054688 C 123.175781 235.597656 123.378906 236.125 123.632812 236.628906 C 123.886719 237.136719 124.1875 237.609375 124.535156 238.054688 L 157.59375 280.054688 C 158.136719 280.761719 158.777344 281.375 159.507812 281.886719 C 160.238281 282.402344 161.03125 282.792969 161.882812 283.066406 C 162.730469 283.339844 163.605469 283.480469 164.496094 283.488281 C 165.390625 283.496094 166.265625 283.371094 167.121094 283.113281 L 197.0625 274.585938 C 197.738281 274.390625 198.425781 274.238281 199.117188 274.121094 C 199.8125 274.007812 200.511719 273.933594 201.214844 273.902344 C 201.917969 273.867188 202.621094 273.875 203.324219 273.925781 C 204.027344 273.972656 204.722656 274.0625 205.417969 274.195312 C 206.109375 274.324219 206.789062 274.496094 207.460938 274.703125 C 208.132812 274.914062 208.792969 275.164062 209.433594 275.449219 C 210.078125 275.734375 210.703125 276.058594 211.308594 276.417969 C 211.914062 276.777344 212.496094 277.171875 213.054688 277.597656 C 213.617188 278.023438 214.148438 278.484375 214.65625 278.972656 C 215.160156 279.460938 215.636719 279.980469 216.082031 280.523438 C 216.527344 281.070312 216.941406 281.636719 217.320312 282.230469 C 217.703125 282.824219 218.046875 283.4375 218.351562 284.070312 C 218.660156 284.703125 218.933594 285.351562 219.164062 286.015625 C 219.398438 286.679688 219.589844 287.355469 219.742188 288.042969 C 219.898438 288.730469 220.011719 289.425781 220.082031 290.125 C 220.15625 290.824219 220.1875 291.527344 220.179688 292.230469 L 218.945312 377.171875 C 218.914062 377.769531 218.816406 378.359375 218.648438 378.9375 L 207.53125 412.816406 C 204.132812 423.304688 201.855469 434.027344 200.707031 444.992188 L 194.355469 505.757812 C 194.285156 506.410156 194.277344 507.0625 194.335938 507.714844 C 194.390625 508.371094 194.511719 509.011719 194.695312 509.644531 C 194.878906 510.273438 195.125 510.878906 195.425781 511.460938 C 195.730469 512.046875 196.085938 512.59375 196.496094 513.105469 C 196.910156 513.617188 197.367188 514.082031 197.867188 514.503906 C 198.371094 514.925781 198.910156 515.296875 199.488281 515.613281 C 200.0625 515.929688 200.664062 516.183594 201.289062 516.382812 C 201.917969 516.578125 202.554688 516.714844 203.207031 516.785156 C 203.859375 516.855469 204.515625 516.863281 205.167969 516.808594 C 205.824219 516.75 206.464844 516.628906 207.09375 516.445312 C 207.726562 516.261719 208.332031 516.019531 208.914062 515.714844 C 209.496094 515.410156 210.042969 515.054688 210.554688 514.644531 C 211.070312 514.234375 211.535156 513.777344 211.957031 513.273438 C 212.378906 512.769531 212.75 512.230469 213.066406 511.652344 C 213.378906 511.078125 213.636719 510.476562 213.835938 509.851562 C 214.03125 509.226562 214.167969 508.585938 214.238281 507.933594 L 220.121094 453.699219 C 221.78125 439.089844 225.269531 424.933594 230.589844 411.230469 L 241.941406 382.347656 C 242.289062 381.449219 242.699219 380.582031 243.179688 379.746094 C 243.65625 378.90625 244.195312 378.113281 244.792969 377.359375 C 245.394531 376.601562 246.046875 375.898438 246.75 375.242188 C 247.457031 374.589844 248.207031 373.988281 249.007812 373.449219 C 249.804688 372.90625 250.636719 372.429688 251.507812 372.015625 C 252.375 371.601562 253.273438 371.257812 254.195312 370.976562 C 255.117188 370.699219 256.054688 370.492188 257.007812 370.359375 C 257.960938 370.222656 258.921875 370.160156 259.882812 370.171875 Z M 285.648438 233.351562 Z M 285.648438 233.351562 " fill-opacity="1" fill-rule="nonzero"/></g><g clip-path="url(#6717723f67)"><path fill="#ffffff" d="M 404.234375 531.050781 C 403.523438 531.046875 402.816406 531.007812 402.113281 530.9375 C 401.40625 530.867188 400.707031 530.761719 400.011719 530.621094 C 399.316406 530.484375 398.632812 530.3125 397.953125 530.109375 C 397.273438 529.902344 396.609375 529.667969 395.953125 529.398438 C 395.296875 529.128906 394.65625 528.828125 394.027344 528.5 C 393.402344 528.167969 392.792969 527.808594 392.199219 527.417969 C 391.609375 527.03125 391.035156 526.613281 390.484375 526.171875 C 389.929688 525.726562 389.402344 525.257812 388.894531 524.761719 C 388.386719 524.265625 387.90625 523.75 387.449219 523.207031 C 386.988281 522.667969 386.558594 522.105469 386.15625 521.523438 C 385.753906 520.9375 385.378906 520.339844 385.03125 519.71875 C 384.6875 519.101562 384.371094 518.46875 384.085938 517.816406 C 383.804688 517.167969 383.550781 516.507812 383.328125 515.835938 C 383.109375 515.160156 382.917969 514.480469 382.765625 513.789062 C 382.609375 513.097656 382.488281 512.398438 382.398438 511.695312 C 382.308594 510.992188 382.253906 510.289062 382.234375 509.578125 L 380.292969 423.464844 C 380.15625 418.640625 380.996094 413.992188 382.820312 409.523438 L 403.644531 358.113281 L 417.058594 259.585938 C 417.320312 257.53125 417.222656 255.492188 416.769531 253.46875 C 416.3125 251.449219 415.527344 249.566406 414.410156 247.820312 L 385.234375 202.820312 C 383.542969 200.203125 382.300781 197.382812 381.507812 194.367188 C 380.714844 191.351562 380.40625 188.289062 380.585938 185.175781 L 383.703125 131.058594 C 383.785156 129.636719 384.007812 128.234375 384.371094 126.859375 C 384.738281 125.480469 385.238281 124.15625 385.875 122.878906 C 386.515625 121.605469 387.273438 120.410156 388.15625 119.289062 C 389.039062 118.171875 390.023438 117.152344 391.117188 116.234375 C 391.902344 115.574219 392.734375 114.972656 393.609375 114.429688 C 394.484375 113.890625 395.394531 113.417969 396.335938 113.007812 C 397.28125 112.601562 398.25 112.265625 399.246094 112.003906 C 400.238281 111.738281 401.246094 111.546875 402.269531 111.429688 C 403.289062 111.316406 404.316406 111.273438 405.34375 111.308594 C 406.371094 111.339844 407.390625 111.449219 408.402344 111.632812 C 409.414062 111.820312 410.40625 112.074219 411.382812 112.40625 C 412.355469 112.734375 413.300781 113.132812 414.214844 113.601562 C 415.132812 114.070312 416.007812 114.605469 416.84375 115.203125 C 417.683594 115.800781 418.472656 116.453125 419.210938 117.167969 C 419.953125 117.882812 420.636719 118.644531 421.265625 119.460938 C 421.894531 120.273438 422.460938 121.128906 422.964844 122.027344 C 423.464844 122.921875 423.902344 123.851562 424.265625 124.8125 C 424.632812 125.773438 424.929688 126.757812 425.148438 127.761719 C 425.371094 128.765625 425.519531 129.78125 425.59375 130.804688 C 425.664062 131.832031 425.664062 132.855469 425.585938 133.882812 L 422.292969 178.117188 C 422.140625 180.089844 422.316406 182.035156 422.820312 183.953125 C 423.324219 185.867188 424.128906 187.648438 425.234375 189.292969 L 447.820312 222.9375 C 448.546875 224.019531 449.382812 225.007812 450.332031 225.902344 C 451.277344 226.796875 452.308594 227.574219 453.425781 228.242188 C 454.546875 228.910156 455.722656 229.445312 456.960938 229.847656 C 458.199219 230.253906 459.464844 230.519531 460.761719 230.644531 L 480.996094 232.410156 C 483.027344 232.578125 485.027344 232.398438 486.996094 231.875 C 488.964844 231.347656 490.789062 230.507812 492.464844 229.351562 L 532.230469 201.644531 C 533.699219 200.617188 534.984375 199.394531 536.085938 197.980469 C 537.1875 196.570312 538.058594 195.023438 538.699219 193.351562 L 553.289062 155.410156 C 553.519531 154.785156 553.777344 154.167969 554.070312 153.566406 C 554.359375 152.964844 554.675781 152.375 555.023438 151.804688 C 555.367188 151.230469 555.742188 150.675781 556.140625 150.140625 C 556.539062 149.605469 556.964844 149.089844 557.414062 148.59375 C 557.863281 148.097656 558.335938 147.625 558.828125 147.175781 C 559.324219 146.726562 559.839844 146.300781 560.375 145.902344 C 560.910156 145.5 561.464844 145.128906 562.035156 144.78125 C 562.609375 144.433594 563.195312 144.117188 563.796875 143.824219 C 564.398438 143.535156 565.015625 143.273438 565.640625 143.042969 C 566.269531 142.8125 566.90625 142.613281 567.550781 142.441406 C 568.199219 142.273438 568.851562 142.132812 569.511719 142.027344 C 570.171875 141.921875 570.835938 141.847656 571.503906 141.804688 C 572.171875 141.761719 572.839844 141.75 573.507812 141.769531 C 574.175781 141.792969 574.839844 141.847656 575.503906 141.933594 C 576.167969 142.015625 576.824219 142.132812 577.476562 142.285156 C 578.128906 142.433594 578.773438 142.613281 579.40625 142.824219 C 580.054688 143.042969 580.6875 143.296875 581.308594 143.582031 C 581.933594 143.863281 582.539062 144.179688 583.132812 144.523438 C 583.722656 144.863281 584.296875 145.238281 584.851562 145.636719 C 585.40625 146.035156 585.941406 146.464844 586.453125 146.914062 C 586.964844 147.367188 587.453125 147.84375 587.921875 148.347656 C 588.386719 148.847656 588.828125 149.371094 589.242188 149.914062 C 589.65625 150.457031 590.042969 151.019531 590.402344 151.601562 C 590.757812 152.1875 591.089844 152.785156 591.390625 153.398438 C 591.6875 154.011719 591.957031 154.640625 592.195312 155.28125 C 592.433594 155.925781 592.640625 156.574219 592.8125 157.238281 C 592.988281 157.898438 593.128906 158.566406 593.234375 159.242188 C 593.34375 159.917969 593.417969 160.597656 593.460938 161.28125 C 593.5 161.960938 593.507812 162.644531 593.480469 163.328125 C 593.453125 164.011719 593.394531 164.695312 593.300781 165.371094 C 593.207031 166.046875 593.082031 166.71875 592.921875 167.386719 C 592.761719 168.050781 592.570312 168.707031 592.347656 169.351562 L 575.875 215.878906 C 574.777344 218.941406 573.21875 221.75 571.207031 224.304688 C 569.195312 226.863281 566.828125 229.035156 564.113281 230.820312 L 525.054688 256.878906 C 523.214844 258.128906 521.519531 259.550781 519.96875 261.148438 C 518.421875 262.742188 517.050781 264.476562 515.855469 266.355469 C 514.660156 268.230469 513.671875 270.210938 512.882812 272.289062 C 512.09375 274.367188 511.523438 276.507812 511.171875 278.703125 L 495.878906 373.757812 L 502.644531 398.582031 C 503.019531 399.941406 503.5625 401.234375 504.273438 402.453125 C 504.984375 403.671875 505.84375 404.777344 506.84375 405.773438 C 507.84375 406.769531 508.953125 407.617188 510.175781 408.324219 C 511.398438 409.03125 512.691406 409.566406 514.054688 409.933594 L 564.113281 423.109375 C 564.84375 423.304688 565.5625 423.535156 566.273438 423.796875 C 566.980469 424.058594 567.675781 424.355469 568.359375 424.6875 C 569.039062 425.015625 569.703125 425.378906 570.347656 425.773438 C 570.992188 426.167969 571.617188 426.59375 572.222656 427.046875 C 572.828125 427.5 573.410156 427.984375 573.96875 428.496094 C 574.527344 429.003906 575.058594 429.542969 575.566406 430.105469 C 576.070312 430.664062 576.550781 431.25 577 431.859375 C 577.449219 432.46875 577.871094 433.09375 578.257812 433.742188 C 578.648438 434.390625 579.003906 435.058594 579.332031 435.742188 C 579.65625 436.425781 579.949219 437.121094 580.207031 437.832031 C 580.464844 438.542969 580.6875 439.265625 580.875 440 C 581.0625 440.730469 581.214844 441.472656 581.332031 442.21875 C 581.449219 442.964844 581.53125 443.71875 581.574219 444.472656 C 581.621094 445.226562 581.628906 445.984375 581.597656 446.738281 C 581.570312 447.496094 581.507812 448.25 581.40625 449 C 581.304688 449.75 581.167969 450.492188 580.996094 451.226562 C 580.824219 451.992188 580.613281 452.75 580.363281 453.492188 C 580.117188 454.238281 579.832031 454.96875 579.511719 455.683594 C 579.191406 456.402344 578.835938 457.097656 578.445312 457.78125 C 578.058594 458.460938 577.632812 459.121094 577.175781 459.757812 C 576.722656 460.394531 576.234375 461.011719 575.714844 461.601562 C 575.199219 462.1875 574.652344 462.75 574.078125 463.285156 C 573.503906 463.820312 572.90625 464.328125 572.28125 464.800781 C 571.65625 465.277344 571.007812 465.71875 570.339844 466.128906 C 569.671875 466.539062 568.984375 466.914062 568.277344 467.257812 C 567.570312 467.597656 566.851562 467.902344 566.113281 468.171875 C 565.375 468.441406 564.628906 468.675781 563.867188 468.867188 C 563.105469 469.0625 562.339844 469.21875 561.5625 469.335938 C 560.789062 469.453125 560.007812 469.53125 559.222656 469.574219 C 558.441406 469.613281 557.65625 469.613281 556.875 469.574219 C 556.089844 469.535156 555.308594 469.457031 554.535156 469.339844 C 553.757812 469.222656 552.992188 469.070312 552.230469 468.875 L 481.761719 451.109375 C 480.605469 450.828125 479.472656 450.46875 478.367188 450.039062 C 477.257812 449.609375 476.179688 449.109375 475.136719 448.542969 C 474.089844 447.972656 473.089844 447.339844 472.125 446.640625 C 471.164062 445.945312 470.25 445.1875 469.382812 444.371094 C 468.519531 443.554688 467.710938 442.6875 466.957031 441.765625 C 466.203125 440.84375 465.515625 439.878906 464.886719 438.871094 C 464.257812 437.859375 463.695312 436.816406 463.203125 435.734375 C 462.710938 434.652344 462.289062 433.542969 461.9375 432.40625 L 445.46875 379.464844 L 427.820312 418.757812 C 426.5 421.757812 425.832031 424.894531 425.820312 428.171875 L 425.820312 508.757812 C 425.832031 509.472656 425.804688 510.191406 425.746094 510.90625 C 425.683594 511.621094 425.589844 512.332031 425.460938 513.039062 C 425.328125 513.746094 425.164062 514.445312 424.964844 515.132812 C 424.769531 515.824219 424.535156 516.503906 424.269531 517.171875 C 424.007812 517.839844 423.710938 518.492188 423.378906 519.128906 C 423.050781 519.769531 422.691406 520.390625 422.300781 520.992188 C 421.914062 521.597656 421.496094 522.179688 421.046875 522.742188 C 420.601562 523.304688 420.128906 523.84375 419.628906 524.359375 C 419.128906 524.875 418.605469 525.363281 418.058594 525.828125 C 417.507812 526.292969 416.941406 526.730469 416.351562 527.140625 C 415.757812 527.546875 415.152344 527.925781 414.523438 528.277344 C 413.894531 528.625 413.253906 528.945312 412.59375 529.230469 C 411.933594 529.515625 411.265625 529.769531 410.582031 529.992188 C 409.898438 530.210938 409.203125 530.398438 408.503906 530.550781 C 407.800781 530.703125 407.09375 530.820312 406.378906 530.90625 C 405.667969 530.988281 404.953125 531.035156 404.234375 531.050781 Z M 404.644531 123.234375 C 404.0625 123.238281 403.484375 123.296875 402.910156 123.40625 C 402.335938 123.519531 401.777344 123.683594 401.238281 123.898438 C 400.695312 124.117188 400.179688 124.382812 399.6875 124.695312 C 399.195312 125.007812 398.734375 125.367188 398.308594 125.765625 C 397.886719 126.167969 397.5 126.605469 397.160156 127.078125 C 396.816406 127.550781 396.519531 128.050781 396.273438 128.578125 C 396.023438 129.105469 395.828125 129.652344 395.683594 130.21875 C 395.539062 130.785156 395.445312 131.359375 395.410156 131.941406 L 392.292969 185.824219 C 392.207031 187.691406 392.40625 189.527344 392.886719 191.335938 C 393.367188 193.140625 394.113281 194.832031 395.117188 196.410156 L 424.054688 241.351562 C 425.9375 244.28125 427.257812 247.441406 428.015625 250.839844 C 428.777344 254.238281 428.925781 257.664062 428.46875 261.113281 L 415.175781 360.464844 C 415.113281 360.949219 414.996094 361.421875 414.820312 361.878906 L 393.527344 413.992188 C 392.320312 416.933594 391.769531 419.992188 391.878906 423.171875 L 393.820312 509.285156 C 393.871094 509.921875 393.976562 510.550781 394.144531 511.167969 C 394.308594 511.785156 394.53125 512.382812 394.808594 512.957031 C 395.085938 513.535156 395.417969 514.078125 395.796875 514.59375 C 396.175781 515.109375 396.601562 515.582031 397.070312 516.015625 C 397.539062 516.453125 398.042969 516.839844 398.585938 517.179688 C 399.128906 517.519531 399.695312 517.804688 400.289062 518.039062 C 400.886719 518.273438 401.496094 518.449219 402.125 518.566406 C 402.753906 518.6875 403.386719 518.746094 404.027344 518.746094 C 404.667969 518.746094 405.300781 518.6875 405.929688 518.566406 C 406.558594 518.449219 407.167969 518.273438 407.765625 518.039062 C 408.359375 517.804688 408.929688 517.519531 409.46875 517.179688 C 410.011719 516.839844 410.515625 516.453125 410.984375 516.015625 C 411.453125 515.582031 411.878906 515.109375 412.257812 514.59375 C 412.640625 514.078125 412.96875 513.535156 413.246094 512.957031 C 413.523438 512.382812 413.746094 511.785156 413.910156 511.167969 C 414.078125 510.550781 414.183594 509.921875 414.234375 509.285156 L 414.234375 428.464844 C 414.21875 423.523438 415.21875 418.796875 417.234375 414.289062 L 441.113281 360.757812 C 441.363281 360.199219 441.691406 359.691406 442.097656 359.234375 C 442.507812 358.777344 442.972656 358.394531 443.5 358.082031 C 444.027344 357.773438 444.589844 357.550781 445.1875 357.414062 C 445.785156 357.277344 446.386719 357.238281 446.996094 357.289062 C 447.589844 357.328125 448.164062 357.453125 448.71875 357.664062 C 449.273438 357.878906 449.785156 358.167969 450.253906 358.535156 C 450.722656 358.902344 451.125 359.332031 451.460938 359.820312 C 451.796875 360.3125 452.054688 360.839844 452.230469 361.40625 L 473.410156 428.933594 C 473.835938 430.265625 474.425781 431.519531 475.179688 432.699219 C 475.933594 433.875 476.828125 434.9375 477.859375 435.878906 C 478.890625 436.824219 480.027344 437.621094 481.265625 438.265625 C 482.507812 438.914062 483.808594 439.390625 485.171875 439.699219 L 555.113281 457.347656 C 556.640625 457.734375 558.1875 457.808594 559.75 457.574219 C 561.308594 457.339844 562.765625 456.8125 564.113281 455.992188 C 565.410156 455.160156 566.503906 454.113281 567.386719 452.847656 C 568.273438 451.585938 568.886719 450.203125 569.230469 448.699219 C 569.402344 447.960938 569.503906 447.210938 569.53125 446.453125 C 569.558594 445.691406 569.511719 444.9375 569.394531 444.1875 C 569.277344 443.4375 569.089844 442.707031 568.828125 441.992188 C 568.570312 441.28125 568.242188 440.597656 567.851562 439.949219 C 567.460938 439.296875 567.007812 438.691406 566.5 438.128906 C 565.992188 437.566406 565.433594 437.054688 564.824219 436.601562 C 564.214844 436.148438 563.570312 435.753906 562.886719 435.425781 C 562.203125 435.09375 561.492188 434.832031 560.757812 434.640625 L 511.171875 421.289062 C 509.992188 420.976562 508.835938 420.589844 507.703125 420.128906 C 506.574219 419.667969 505.476562 419.136719 504.417969 418.53125 C 503.355469 417.925781 502.339844 417.253906 501.367188 416.515625 C 500.394531 415.777344 499.472656 414.980469 498.605469 414.121094 C 497.734375 413.265625 496.925781 412.351562 496.175781 411.390625 C 495.429688 410.425781 494.746094 409.417969 494.128906 408.363281 C 493.511719 407.308594 492.964844 406.21875 492.488281 405.09375 C 492.015625 403.96875 491.613281 402.820312 491.289062 401.640625 L 484.230469 375.640625 C 484.046875 374.796875 484.046875 373.957031 484.230469 373.113281 L 499.9375 276.761719 C 500.4375 273.761719 501.234375 270.84375 502.332031 268.007812 C 503.429688 265.171875 504.800781 262.480469 506.449219 259.925781 C 508.097656 257.371094 509.992188 255.007812 512.121094 252.84375 C 514.253906 250.675781 516.585938 248.746094 519.113281 247.054688 L 558.230469 221.058594 C 559.847656 219.957031 561.253906 218.632812 562.453125 217.085938 C 563.648438 215.539062 564.574219 213.839844 565.230469 212 L 581.464844 165.644531 C 581.882812 164.511719 582.058594 163.339844 581.988281 162.132812 C 581.914062 160.925781 581.605469 159.78125 581.054688 158.707031 C 580.535156 157.621094 579.828125 156.683594 578.929688 155.886719 C 578.03125 155.089844 577.015625 154.5 575.875 154.117188 C 575.328125 153.929688 574.769531 153.800781 574.195312 153.722656 C 573.625 153.640625 573.046875 153.617188 572.472656 153.652344 C 571.894531 153.683594 571.324219 153.769531 570.765625 153.910156 C 570.203125 154.050781 569.660156 154.242188 569.136719 154.484375 C 568.613281 154.730469 568.117188 155.023438 567.648438 155.359375 C 567.183594 155.699219 566.75 156.082031 566.355469 156.503906 C 565.960938 156.925781 565.609375 157.378906 565.300781 157.871094 C 564.992188 158.359375 564.734375 158.871094 564.523438 159.410156 L 549.9375 197.351562 C 548.878906 200.136719 547.433594 202.703125 545.601562 205.050781 C 543.765625 207.398438 541.621094 209.421875 539.171875 211.117188 L 499.40625 238.878906 C 496.589844 240.832031 493.523438 242.246094 490.207031 243.125 C 486.894531 244.003906 483.53125 244.296875 480.113281 243.996094 L 459.9375 242.234375 C 457.765625 242.046875 455.636719 241.625 453.558594 240.960938 C 451.480469 240.296875 449.5 239.40625 447.621094 238.296875 C 445.742188 237.1875 444.011719 235.882812 442.425781 234.382812 C 440.84375 232.882812 439.445312 231.226562 438.234375 229.410156 L 415.46875 195.761719 C 413.628906 193.019531 412.292969 190.046875 411.457031 186.851562 C 410.621094 183.65625 410.328125 180.410156 410.585938 177.117188 L 413.878906 133.117188 C 413.925781 132.527344 413.914062 131.941406 413.84375 131.355469 C 413.777344 130.765625 413.652344 130.191406 413.472656 129.628906 C 413.292969 129.066406 413.0625 128.523438 412.777344 128.007812 C 412.492188 127.488281 412.160156 127.003906 411.785156 126.546875 C 411.40625 126.09375 410.988281 125.679688 410.53125 125.308594 C 410.070312 124.933594 409.582031 124.609375 409.0625 124.328125 C 408.539062 124.050781 407.996094 123.824219 407.433594 123.648438 C 406.867188 123.476562 406.292969 123.355469 405.703125 123.292969 Z M 409.351562 359.640625 Z M 409.351562 359.640625 " fill-opacity="1" fill-rule="nonzero"/></g></svg>