<svg xmlns="http://www.w3.org/2000/svg" xmlns:xlink="http://www.w3.org/1999/xlink" width="940" zoomAndPan="magnify" viewBox="0 0 705 591.000005" height="788" preserveAspectRatio="xMidYMid meet" version="1.0"><defs><clipPath id="e54cdb19de"><path d="M 119.15625 59 L 585.613281 59 L 585.613281 530.703125 L 119.15625 530.703125 Z M 119.15625 59 " clip-rule="nonzero"/></clipPath></defs><g clip-path="url(#e54cdb19de)"><path fill="#2b2a2a" d="M 347.644531 441.417969 C 347.636719 441.136719 347.402344 440.917969 347.125 440.929688 C 347.003906 440.933594 346.882812 440.980469 346.792969 441.066406 C 321.375 465.316406 298.875 492.089844 280.921875 521.945312 C 277.933594 526.925781 270.621094 528.882812 264.855469 529.640625 C 252.441406 531.265625 241.070312 530.960938 230.746094 528.726562 C 221.789062 526.792969 218.390625 519.582031 213.960938 511.472656 C 212.476562 508.761719 210.683594 505.914062 208.570312 502.9375 C 196.082031 485.355469 184.484375 470.902344 173.773438 459.585938 C 171.523438 457.210938 165.601562 451.324219 156.015625 441.929688 C 148.195312 434.28125 139.589844 427.078125 131.699219 419.15625 C 127.378906 414.816406 124.035156 410.933594 121.671875 407.5 C 119.023438 403.648438 118.476562 399.070312 120.027344 393.765625 C 121.65625 388.210938 123.863281 382.320312 126.65625 376.09375 C 136.753906 353.546875 141.472656 344.003906 146.804688 328.421875 C 151.742188 313.960938 153.089844 299.160156 150.839844 284.015625 C 149.441406 274.5625 146.894531 263.542969 143.207031 250.953125 C 139.15625 237.132812 135.828125 225.046875 133.226562 214.699219 C 131.699219 208.640625 130.75 202.230469 130.382812 195.464844 C 129.527344 179.558594 136.972656 165.441406 143.742188 150.375 C 148.90625 138.898438 149.324219 129.171875 150.25 113.785156 C 151.160156 98.503906 151.808594 86.8125 152.195312 78.707031 C 152.617188 69.832031 154.765625 61.371094 165.152344 60.375 C 174.277344 59.503906 179.886719 63.84375 181.972656 73.402344 C 182.933594 77.757812 183.980469 87.230469 185.109375 101.828125 C 185.207031 103.019531 185.9375 113.25 187.308594 132.515625 C 187.730469 138.429688 188.085938 141.769531 188.375 142.539062 C 189.578125 145.734375 191.855469 148.097656 195.207031 149.632812 C 213.761719 158.125 229.59375 170.25 242.707031 186.019531 C 244.335938 187.988281 247.113281 191.417969 251.039062 196.308594 C 251.125 196.417969 251.230469 196.507812 251.355469 196.574219 C 251.476562 196.640625 251.605469 196.683594 251.746094 196.699219 C 251.886719 196.714844 252.023438 196.703125 252.15625 196.664062 C 252.292969 196.625 252.414062 196.5625 252.523438 196.476562 C 252.59375 196.417969 252.65625 196.355469 252.707031 196.285156 C 262.101562 183.984375 273.066406 173.332031 285.59375 164.328125 C 291.992188 159.71875 298.644531 156.164062 307.746094 151.148438 C 312.621094 148.457031 316.523438 145.363281 316.929688 139.417969 C 318.117188 122.027344 320.75 102 324.84375 79.34375 C 326.152344 72.105469 327.941406 61.191406 337.234375 60.339844 C 343.910156 59.738281 351.148438 59.871094 353.875 67.074219 C 354.5625 68.890625 354.914062 72.46875 354.917969 77.804688 C 354.929688 88.019531 354.878906 96.019531 354.773438 101.816406 C 354.464844 117.699219 354.980469 132.238281 359.503906 146.089844 C 362.011719 153.742188 364.96875 161.824219 368.386719 170.339844 C 368.453125 170.507812 368.644531 170.589844 368.808594 170.519531 C 368.859375 170.496094 368.90625 170.464844 368.941406 170.421875 C 372.6875 165.738281 377.703125 159.402344 383.984375 151.417969 C 394.050781 138.632812 396.472656 124.550781 396.699219 108.234375 C 396.859375 97.460938 396.933594 85.75 396.917969 73.097656 C 396.90625 70.207031 397.675781 67.464844 399.210938 64.875 C 402.222656 59.785156 411.214844 59.425781 416.117188 60.839844 C 421.242188 62.316406 421.425781 69.820312 421.617188 75.113281 C 421.65625 76.160156 421.808594 85.0625 422.070312 101.8125 C 422.457031 125.003906 430.65625 157.214844 453.710938 169.160156 C 467.363281 176.234375 483.210938 169.894531 492.675781 159.507812 C 505.367188 145.558594 511.621094 125.882812 512.929688 107.214844 C 513.523438 98.730469 513.84375 87.625 513.902344 73.902344 C 513.925781 67.851562 513.554688 60.058594 521.152344 59.242188 C 526.007812 58.714844 530.078125 59.125 533.378906 60.476562 C 537.351562 62.097656 538.230469 66.433594 538.300781 70.898438 C 538.691406 94.796875 539.15625 110.90625 539.691406 119.230469 C 540.636719 133.953125 545.890625 146.90625 555.457031 158.078125 C 558.953125 162.167969 562.457031 166.128906 565.964844 169.960938 C 570.921875 175.390625 572.484375 178.714844 572.144531 185.855469 C 571.691406 195.460938 570.835938 205.039062 569.578125 214.597656 C 566.273438 239.765625 563.773438 259.863281 562.085938 274.886719 C 561.988281 275.738281 562.320312 276.59375 562.976562 277.15625 C 565.714844 279.546875 567.261719 282.730469 567.625 286.699219 C 568.390625 295.078125 568.441406 298.835938 570.230469 306.21875 C 572.757812 316.632812 574.265625 323.261719 574.746094 326.113281 C 578.742188 349.753906 581.425781 374.199219 582.804688 399.441406 C 583.035156 403.738281 583.351562 408.199219 583.753906 412.824219 C 584.316406 419.367188 584.015625 423.878906 584.519531 430.699219 C 585.25 440.566406 585.617188 454.503906 585.625 472.5 C 585.625 476.328125 583.941406 478.726562 580.582031 479.703125 C 574.761719 481.386719 568.089844 482.925781 560.5625 484.328125 C 533.675781 489.3125 507.515625 491.300781 482.074219 490.292969 C 476.414062 490.070312 472.925781 487.316406 471.605469 482.035156 C 469.226562 472.5625 468.074219 463.113281 466.105469 446.140625 C 466.078125 445.898438 465.957031 445.574219 465.734375 445.167969 C 465.605469 444.945312 465.320312 444.859375 465.097656 444.980469 C 464.96875 445.050781 464.886719 445.179688 464.871094 445.324219 C 463.5625 454.785156 462.140625 463.976562 460.59375 472.898438 C 459.953125 476.613281 459.011719 480.460938 457.773438 484.449219 C 455.878906 490.511719 449.898438 490.523438 443.964844 490.523438 C 415.503906 490.5 386.503906 487.308594 356.976562 480.941406 C 350.300781 479.515625 347.273438 477.59375 347.433594 470.679688 C 347.75 455.941406 347.820312 446.1875 347.644531 441.417969 Z M 524.460938 67.421875 C 523.382812 67.328125 522.433594 68.125 522.339844 69.199219 C 522.335938 69.230469 522.335938 69.261719 522.332031 69.292969 C 522.011719 77.554688 521.863281 84.21875 521.878906 89.28125 C 521.960938 110.449219 519.703125 131.167969 509.640625 149.703125 C 500.707031 166.164062 484.546875 181.179688 465.035156 180.328125 C 436.976562 179.09375 421.785156 150.542969 416.9375 126.703125 C 415.527344 119.796875 414.585938 112.527344 414.105469 104.890625 C 413.414062 93.988281 413.210938 82.804688 413.492188 71.324219 C 413.539062 69.328125 411.957031 67.675781 409.960938 67.628906 C 409.734375 67.621094 409.511719 67.636719 409.289062 67.675781 L 409.167969 67.699219 C 406.714844 68.097656 404.917969 70.230469 404.941406 72.71875 C 405.109375 88.265625 405.554688 106.117188 404.125 121.457031 C 403.5 128.195312 401.882812 134.847656 399.273438 141.414062 C 396.40625 148.636719 391.230469 155.792969 386.402344 162.242188 C 384.527344 164.738281 380.378906 169.691406 373.953125 177.101562 C 372.382812 178.910156 371.609375 180.941406 371.632812 183.191406 C 371.746094 191.203125 371.515625 199.71875 370.949219 208.738281 C 370.625 213.828125 370.921875 220.09375 371.5 223.996094 C 373.9375 240.582031 376.085938 256.542969 377.960938 271.886719 C 377.992188 272.140625 378.0625 272.378906 378.179688 272.609375 C 378.296875 272.835938 378.449219 273.035156 378.636719 273.207031 C 378.824219 273.382812 379.039062 273.515625 379.277344 273.613281 C 379.511719 273.707031 379.757812 273.761719 380.015625 273.769531 C 386.625 274 397.964844 274.570312 414.03125 275.472656 C 425.613281 276.121094 436.96875 276.5 448.09375 276.613281 C 483.371094 276.980469 518.195312 276.070312 552.566406 273.875 C 552.90625 273.855469 553.203125 273.730469 553.453125 273.496094 C 553.707031 273.265625 553.855469 272.976562 553.898438 272.640625 C 558.773438 234.75 561.332031 218.148438 563.445312 191.855469 C 563.707031 188.566406 563.726562 185.453125 563.503906 182.519531 C 563.417969 181.386719 562.972656 180.3125 562.230469 179.445312 C 558.257812 174.78125 554.21875 170.050781 550.105469 165.253906 C 538.1875 151.375 531.925781 135.328125 531.328125 117.105469 C 530.816406 101.9375 530.492188 86.246094 530.367188 70.03125 C 530.367188 69.75 530.316406 69.476562 530.210938 69.214844 C 530.109375 68.949219 529.960938 68.714844 529.769531 68.507812 C 529.578125 68.300781 529.355469 68.132812 529.105469 68.007812 C 528.851562 67.882812 528.582031 67.808594 528.300781 67.785156 Z M 128.332031 395.605469 C 128.105469 396.457031 128.605469 397.328125 129.449219 397.554688 C 129.472656 397.5625 129.496094 397.570312 129.519531 397.570312 C 160.617188 404.4375 186.632812 427.234375 204.65625 452.445312 C 218.203125 471.417969 223.339844 492.21875 227.074219 514.898438 C 227.378906 516.761719 227.941406 518.324219 228.765625 519.582031 C 228.996094 519.933594 229.300781 520.210938 229.675781 520.40625 C 231.039062 521.101562 232.898438 521.582031 235.257812 521.847656 C 248.082031 523.3125 258.886719 523.070312 269.5 520.863281 C 271.925781 520.359375 272.851562 519.132812 273.234375 516.675781 C 274.339844 509.488281 275.742188 502.1875 277.449219 494.765625 C 281.714844 476.230469 290.34375 459.148438 303.335938 443.527344 C 309.386719 436.253906 315.050781 430.117188 320.328125 425.125 C 335.175781 411.097656 352.527344 401.746094 372.375 397.070312 C 372.867188 396.953125 373.171875 396.464844 373.054688 395.980469 C 373.050781 395.972656 373.050781 395.960938 373.050781 395.953125 C 371.519531 390.375 369.648438 385.046875 367.441406 379.972656 C 364.449219 373.105469 359.207031 361.164062 351.710938 344.152344 C 348.0625 335.851562 345.355469 328.042969 343.59375 320.730469 C 341.160156 310.675781 340.722656 300.035156 342.273438 288.808594 C 344.507812 272.617188 348.550781 255.058594 354.402344 236.128906 C 358.683594 222.273438 361.03125 214.207031 361.449219 211.925781 C 363.160156 202.410156 363.621094 192.453125 362.828125 182.058594 C 362.597656 179.054688 361.460938 174.554688 360.535156 172.359375 C 353.667969 156.1875 348.109375 141.097656 347.0625 124.625 C 346.253906 111.796875 346.070312 97.792969 346.511719 82.621094 C 346.542969 81.460938 346.5 79.667969 346.390625 77.242188 C 346.171875 72.742188 346.90625 66.941406 340.421875 68.085938 C 336.253906 68.828125 334.683594 72.839844 333.960938 76.523438 C 329.589844 98.789062 326.773438 120.023438 325.507812 140.234375 C 324.71875 152.972656 317.359375 155.875 307.511719 160.789062 C 288.097656 170.441406 270.773438 185.410156 257.816406 203.261719 C 252.820312 210.152344 247.851562 206.828125 243.707031 200.871094 C 234.171875 187.195312 222.492188 175.734375 208.660156 166.5 C 204.929688 164.011719 201.730469 162.136719 199.054688 160.871094 C 190.484375 156.835938 181.730469 153.796875 180.109375 143.535156 C 179.726562 141.171875 179.195312 137.769531 179.113281 136.152344 C 178.273438 117.535156 176.722656 98.488281 174.464844 79.007812 C 174.082031 75.679688 173.335938 72.957031 172.230469 70.84375 C 172.027344 70.457031 171.753906 70.136719 171.40625 69.875 C 169.011719 68.054688 166.273438 67.75 163.191406 68.960938 C 162.59375 69.191406 162.199219 69.609375 162.015625 70.222656 C 161.269531 72.6875 160.828125 74.683594 160.691406 76.210938 C 160.527344 78.085938 159.65625 94.101562 158.085938 124.269531 C 157.8125 129.542969 157.058594 135.046875 155.816406 140.777344 C 152.09375 158.050781 140.136719 172.003906 139.402344 189.398438 C 139.027344 198.378906 140.125 207.679688 142.691406 217.296875 C 150.664062 247.101562 154.671875 262.082031 154.710938 262.230469 C 157.105469 271.699219 158.808594 281.234375 159.824219 290.828125 C 161.210938 303.851562 159.75 316.570312 155.441406 328.996094 C 152.144531 338.507812 148.484375 347.761719 144.464844 356.75 C 137.152344 373.109375 133.105469 382.257812 132.328125 384.207031 C 130.417969 389.042969 129.082031 392.84375 128.332031 395.605469 Z M 365.226562 233.726562 C 365.203125 233.574219 365.132812 233.449219 365.011719 233.351562 C 364.890625 233.253906 364.753906 233.214844 364.597656 233.230469 C 364.417969 233.253906 364.261719 233.359375 364.179688 233.523438 C 363.605469 234.601562 363.152344 235.691406 362.824219 236.785156 C 358.902344 249.945312 355.328125 264.054688 352.101562 279.125 C 349.171875 292.824219 348.667969 307.769531 352.628906 321.3125 C 353.851562 325.492188 355.15625 329.9375 356.53125 334.652344 C 356.601562 334.90625 356.867188 335.058594 357.125 334.988281 C 357.304688 334.9375 357.4375 334.789062 357.46875 334.605469 C 358.511719 328.25 359.710938 322.085938 361.070312 316.117188 C 362.378906 310.402344 365.25 303.980469 365.394531 297.257812 C 365.550781 290.824219 366.089844 282.609375 369.574219 276.574219 C 369.867188 276.066406 369.980469 275.523438 369.910156 274.941406 Z M 459.152344 285.347656 C 459.207031 285.207031 459.140625 285.046875 459.003906 284.992188 C 458.976562 284.984375 458.945312 284.976562 458.914062 284.976562 C 433.257812 284.492188 406.148438 283.355469 377.578125 281.554688 C 376.679688 281.492188 375.878906 282.125 375.726562 283.019531 L 373.230469 298.050781 C 373.136719 298.605469 373.515625 299.132812 374.078125 299.226562 L 374.144531 299.238281 L 423.539062 303.761719 C 424.359375 303.839844 425.136719 303.378906 425.445312 302.621094 C 430.945312 289.328125 444.175781 287.636719 457.492188 286.460938 C 458.335938 286.394531 458.886719 286.023438 459.152344 285.347656 Z M 473.203125 285.839844 C 475.210938 286.34375 478.460938 287.027344 482.953125 287.894531 C 492.964844 289.8125 500.304688 295 504.972656 303.449219 C 505.09375 303.683594 505.285156 303.792969 505.546875 303.773438 C 524.171875 303.054688 542 301.578125 559.027344 299.34375 C 559.394531 299.292969 559.699219 299.132812 559.945312 298.851562 C 560.1875 298.574219 560.3125 298.25 560.3125 297.878906 C 560.320312 297.070312 559.835938 293.082031 558.859375 285.910156 C 558.496094 283.25 556.914062 282 554.105469 282.152344 C 526.367188 283.671875 499.433594 284.625 473.300781 285.007812 C 473.066406 285.011719 472.882812 285.203125 472.886719 285.433594 C 472.882812 285.628906 473.015625 285.796875 473.203125 285.839844 Z M 460.304688 304.089844 L 468.855469 304.015625 C 469.046875 304.015625 469.203125 303.859375 469.203125 303.667969 L 469.191406 303.402344 C 469.144531 297.972656 467.089844 293.585938 464.605469 293.605469 L 464.367188 293.605469 C 461.878906 293.625 459.902344 298.042969 459.949219 303.472656 L 459.960938 303.738281 C 459.957031 303.933594 460.113281 304.089844 460.304688 304.089844 Z M 495.644531 303.257812 C 490.496094 298.25 484.019531 295.359375 476.214844 294.589844 C 476.089844 294.578125 476.019531 294.636719 476.003906 294.761719 C 476 294.785156 476.003906 294.808594 476.011719 294.828125 L 478.6875 303.84375 C 478.765625 304.105469 479 304.289062 479.261719 304.289062 L 495.230469 304.289062 C 495.5625 304.285156 495.828125 304.011719 495.824219 303.675781 C 495.824219 303.523438 495.757812 303.371094 495.644531 303.257812 Z M 434.179688 302.914062 C 433.953125 303.125 433.9375 303.480469 434.140625 303.707031 C 434.246094 303.824219 434.398438 303.886719 434.550781 303.882812 L 449.449219 304.089844 C 449.699219 304.097656 449.925781 303.929688 450.003906 303.679688 L 452.609375 295.300781 C 452.636719 295.207031 452.582031 295.105469 452.484375 295.082031 C 452.464844 295.074219 452.449219 295.074219 452.433594 295.074219 C 445.128906 295.6875 439.042969 298.300781 434.179688 302.914062 Z M 481.570312 318.253906 L 489.792969 361.953125 C 490.171875 363.980469 488.832031 365.929688 486.808594 366.304688 C 486.671875 366.332031 486.535156 366.347656 486.398438 366.359375 L 486.160156 366.371094 C 483.84375 366.59375 481.742188 365.003906 481.320312 362.707031 C 477.886719 343.957031 474.921875 328.429688 472.433594 316.128906 C 471.933594 313.644531 471.644531 312.589844 469.046875 312.464844 C 465.429688 312.296875 462.191406 312.359375 459.335938 312.644531 C 459.144531 312.664062 458.980469 312.734375 458.839844 312.863281 C 458.699219 312.992188 458.609375 313.152344 458.578125 313.339844 L 450.820312 359.933594 C 450.429688 362.269531 448.449219 364.019531 446.078125 364.121094 L 445.78125 364.132812 C 443.953125 364.253906 442.378906 362.867188 442.257812 361.039062 C 442.242188 360.785156 442.253906 360.527344 442.296875 360.277344 L 449.199219 319.039062 C 449.230469 318.835938 449.152344 318.695312 448.960938 318.613281 C 448.773438 318.53125 448.613281 318.574219 448.492188 318.742188 C 446.585938 321.222656 444.152344 323.191406 441.191406 324.644531 C 435.105469 327.660156 427.429688 326.039062 424.71875 319.472656 C 423.761719 317.167969 423.636719 314.285156 423.242188 312.246094 C 423.195312 311.992188 422.984375 311.800781 422.726562 311.777344 L 399.636719 309.664062 C 399.378906 309.636719 399.121094 309.660156 398.867188 309.726562 C 398.613281 309.789062 398.378906 309.898438 398.164062 310.046875 C 397.949219 310.199219 397.769531 310.378906 397.617188 310.59375 C 397.46875 310.808594 397.359375 311.042969 397.292969 311.296875 L 392.214844 330.660156 C 391.875 331.980469 390.921875 333.058594 389.660156 333.554688 L 389.40625 333.652344 C 389.191406 333.730469 388.96875 333.765625 388.738281 333.753906 C 388.507812 333.746094 388.285156 333.691406 388.078125 333.59375 C 387.867188 333.496094 387.683594 333.363281 387.527344 333.195312 C 387.371094 333.023438 387.253906 332.832031 387.175781 332.613281 C 387.066406 332.316406 387.039062 331.996094 387.101562 331.683594 L 391.230469 310.664062 C 391.367188 309.945312 390.902344 309.253906 390.195312 309.121094 C 390.152344 309.109375 390.109375 309.105469 390.066406 309.101562 L 373.738281 307.601562 C 373.5 307.582031 373.265625 307.601562 373.039062 307.660156 C 372.808594 307.71875 372.59375 307.8125 372.394531 307.945312 C 372.199219 308.078125 372.027344 308.238281 371.886719 308.429688 C 371.742188 308.617188 371.636719 308.828125 371.5625 309.054688 C 368.320312 319.449219 367.097656 327.242188 363.941406 344.085938 C 363.308594 347.476562 363.335938 349.921875 364.015625 351.421875 C 371.171875 367.023438 377.269531 379.96875 381.535156 395.417969 C 382.765625 399.882812 382.027344 404.089844 379.3125 408.035156 C 373.597656 416.332031 364.976562 424.148438 359.480469 429.40625 C 357.304688 431.476562 356.160156 433.941406 356.058594 436.800781 C 355.730469 446.003906 355.753906 457.445312 356.128906 471.125 C 356.136719 471.414062 356.226562 471.679688 356.402344 471.910156 C 356.574219 472.144531 356.800781 472.308594 357.078125 472.398438 C 358.640625 472.914062 360.367188 473.363281 362.257812 473.730469 C 376.945312 476.625 392.730469 478.96875 409.609375 480.753906 C 420.863281 481.941406 429.707031 482.050781 441.402344 482.507812 C 444.042969 482.617188 446.332031 482.507812 448.269531 482.183594 C 449.460938 481.984375 450.417969 481.105469 450.707031 479.9375 C 451.972656 474.839844 453.230469 468.359375 454.480469 460.503906 C 457.425781 441.882812 460.03125 423.992188 462.296875 406.816406 C 462.59375 404.597656 462.5 402.242188 464.949219 401.488281 C 467.050781 400.839844 468.746094 402.925781 468.984375 404.90625 C 471.457031 425.523438 473.984375 445.46875 476.5625 464.742188 C 477.222656 469.6875 478.433594 475.363281 479.5 480.265625 C 479.714844 481.269531 480.578125 482.015625 481.613281 482.085938 C 487.585938 482.472656 493.535156 482.605469 499.46875 482.496094 C 521.320312 482.097656 545.054688 479.292969 570.667969 474.082031 C 573.164062 473.578125 575.207031 472.996094 576.789062 472.339844 C 577.148438 472.195312 577.433594 471.960938 577.644531 471.636719 C 577.855469 471.316406 577.953125 470.960938 577.945312 470.578125 C 576.757812 430.382812 574.070312 390.503906 569.875 350.933594 C 568.464844 337.671875 566.160156 324.445312 562.949219 311.253906 C 561.832031 306.65625 558.851562 307.628906 554.996094 308.027344 C 551.113281 308.433594 546.703125 308.871094 541.769531 309.332031 C 541.136719 309.398438 540.671875 309.953125 540.730469 310.582031 C 540.734375 310.621094 540.738281 310.652344 540.746094 310.691406 L 545.042969 333.558594 C 545.324219 335.050781 544.453125 336.511719 543.015625 336.96875 L 542.679688 337.066406 C 541.539062 337.332031 540.394531 336.628906 540.128906 335.496094 C 540.125 335.484375 540.125 335.476562 540.121094 335.46875 L 534.925781 312.132812 C 534.875 311.902344 534.785156 311.683594 534.660156 311.484375 C 534.53125 311.285156 534.375 311.113281 534.1875 310.96875 C 533.996094 310.824219 533.789062 310.71875 533.566406 310.648438 C 533.339844 310.578125 533.109375 310.546875 532.871094 310.558594 L 508.101562 311.847656 C 507.792969 311.867188 507.566406 312.128906 507.585938 312.433594 L 507.597656 312.507812 C 509.433594 320.972656 502.386719 328.0625 493.886719 325.855469 C 489.539062 324.726562 485.648438 322.089844 482.214844 317.945312 C 482.089844 317.789062 481.863281 317.769531 481.707031 317.902344 C 481.597656 317.988281 481.550781 318.121094 481.570312 318.253906 Z M 445.042969 312.011719 L 432.617188 312.011719 C 432.246094 312.015625 431.929688 312.285156 431.882812 312.648438 C 431.585938 314.894531 433.011719 319.296875 435.882812 318.359375 C 439.097656 317.3125 442.246094 315.4375 445.316406 312.730469 C 445.40625 312.65625 445.453125 312.566406 445.460938 312.453125 C 445.472656 312.339844 445.441406 312.242188 445.367188 312.152344 C 445.289062 312.058594 445.171875 312.007812 445.042969 312.011719 Z M 487.226562 312.371094 C 487.015625 312.375 486.839844 312.546875 486.84375 312.757812 C 486.84375 312.863281 486.890625 312.960938 486.960938 313.03125 C 489.804688 315.574219 492.71875 317.347656 495.714844 318.347656 C 498.378906 319.238281 499.734375 315.144531 499.472656 313.054688 C 499.449219 312.882812 499.375 312.742188 499.246094 312.625 C 499.121094 312.511719 498.96875 312.453125 498.796875 312.453125 Z M 370.207031 405.410156 C 326.261719 421.921875 297.929688 452.726562 285.210938 497.824219 C 285.132812 498.125 285.308594 498.433594 285.605469 498.515625 C 285.835938 498.578125 286.074219 498.492188 286.207031 498.292969 C 294.058594 486.550781 302.453125 475.875 311.382812 466.261719 C 324.085938 452.59375 335.703125 441.003906 346.238281 431.496094 C 351.460938 426.78125 357.367188 421.089844 363.972656 414.414062 C 366.367188 411.988281 368.601562 409.1875 370.683594 406.007812 C 370.742188 405.914062 370.761719 405.808594 370.734375 405.699219 C 370.707031 405.589844 370.648438 405.503906 370.550781 405.445312 C 370.453125 405.386719 370.324219 405.375 370.207031 405.410156 Z M 131.824219 406.515625 C 132.410156 407.714844 133.222656 408.960938 134.261719 410.246094 C 137.179688 413.824219 141.957031 418.640625 145.382812 421.769531 C 172.855469 446.910156 195.726562 469.070312 214.832031 497.367188 C 214.945312 497.535156 215.175781 497.578125 215.347656 497.464844 C 215.402344 497.425781 215.449219 497.367188 215.476562 497.304688 C 215.539062 497.160156 215.519531 496.914062 215.40625 496.5625 C 205.703125 464.328125 187.5625 437.210938 158.335938 418.933594 C 149.917969 413.660156 141.222656 409.367188 132.246094 406.050781 C 132.074219 405.988281 131.878906 406.082031 131.816406 406.253906 C 131.785156 406.34375 131.785156 406.4375 131.824219 406.515625 Z M 131.824219 406.515625 " fill-opacity="1" fill-rule="nonzero"/></g></svg>